<svg width="90" height="42" viewBox="0 0 90 42" fill="none" xmlns="http://www.w3.org/2000/svg">
<path fill-rule="evenodd" clip-rule="evenodd" d="M87.9193 15.1336C87.8591 15.5461 87.5932 15.9082 87.2261 16.0877C87.0868 16.1538 86.9412 16.1916 86.7924 16.1979C86.7101 16.7049 86.4347 17.0733 85.9789 17.2937C85.4535 17.5456 84.7666 17.574 84.1051 17.596C83.2314 17.6306 82.0286 17.7031 81.2056 17.977C80.4016 19.0948 81.7944 19.5357 82.4844 18.5816C83.2029 18.8713 84.2 19.5136 83.6239 20.3638C83.5733 20.4394 83.5195 20.5213 83.4657 20.6283C83.3327 20.8928 83.3454 21.2109 83.3612 21.5478C83.377 21.8973 83.3897 22.2563 83.2536 22.6026C83.1491 22.864 82.9782 23.0529 82.7503 23.1631C82.3958 23.3332 81.9716 23.2922 81.5601 23.2513C81.3734 23.2324 81.1993 23.2167 81.0379 23.2198H80.8289L80.7688 23.0246C80.7023 22.7979 80.6865 22.6215 80.677 22.4924C80.6675 22.4011 80.6644 22.3381 80.639 22.2846C80.6169 22.2563 80.5947 22.2279 80.5726 22.1964C80.5251 22.1555 80.4554 22.1114 80.351 22.0548L80.3383 22.0485C80.2054 21.976 80.1104 21.9351 80.0471 21.9131C80.0186 21.5289 79.9553 21.1479 79.8319 20.7732C79.7369 20.4992 79.604 20.2347 79.4425 19.9891C79.2779 19.7467 79.0785 19.5262 78.8601 19.331C78.6449 19.1358 78.417 18.9594 78.1954 18.7894C77.9707 18.6194 77.7523 18.4493 77.5497 18.2698C77.3471 18.0904 77.1572 17.9046 77.0084 17.6936C76.9324 17.5928 76.8628 17.4795 76.809 17.3724C76.7488 17.2528 76.7014 17.1331 76.6571 17.0103C76.5716 16.7647 76.5209 16.5096 76.5083 16.2514C76.4925 15.9901 76.5178 15.7287 76.5653 15.4674C76.6602 14.9415 76.866 14.4283 77.0685 13.9087C77.2775 13.3923 77.499 12.8664 77.651 12.3154C77.7997 11.7675 77.8757 11.1787 77.7617 10.6245C77.7712 11.1881 77.6383 11.7329 77.4357 12.2461C77.2395 12.7625 76.9799 13.2537 76.7362 13.767C76.4925 14.274 76.2614 14.8061 76.1348 15.3824C76.0715 15.6721 76.043 15.9712 76.0525 16.2735C76.0651 16.5758 76.1189 16.8749 76.2171 17.1615C76.2677 17.3032 76.3247 17.4448 76.3912 17.5771C76.464 17.7188 76.5463 17.8448 76.6381 17.9676C76.8216 18.21 77.0369 18.4178 77.2616 18.6036C77.7143 18.972 78.1954 19.268 78.6227 19.605C79.0469 19.9387 79.3951 20.3607 79.6198 20.8582C79.7844 21.2046 79.911 21.6045 79.9933 21.9886C80.0313 22.1429 80.0661 22.3004 80.0946 22.461C80.2212 22.9774 80.2592 23.3647 79.6198 24.0165C79.4552 24.1834 79.2336 24.3251 79.0215 24.4636C78.9139 24.5329 78.8158 24.599 78.724 24.662C78.5436 24.8194 78.3758 24.9958 78.2619 25.2256C78.2619 25.2477 78.2619 25.2697 78.2619 25.2918L78.2904 25.8837L77.8156 25.5216C77.4104 25.213 77.2236 24.7785 77.0401 24.3597C76.9071 24.0543 76.7868 23.774 76.5969 23.5693C76.3785 24.1424 75.9069 24.7659 75.5587 25.0965C75.4036 25.2445 75.239 25.4146 75.0807 25.5783C74.8212 25.8428 74.5553 26.1199 74.3052 26.3277L74.0013 26.5828L73.8621 26.2112C73.7893 26.0097 73.7924 25.6854 73.7988 25.3138C73.7988 25.2099 73.7988 25.0776 73.7988 24.9517C73.8937 24.6809 73.9539 24.3943 73.9887 24.1109C74.0488 23.5693 74.0108 23.0089 73.8367 22.4767C73.7924 22.3444 73.7355 22.2122 73.6753 22.0925C73.6152 21.9697 73.5487 21.8469 73.4822 21.7273C73.3461 21.4911 73.191 21.2612 73.0328 21.0408C72.7099 20.5968 72.349 20.1875 71.9755 19.7939C71.2349 18.9941 70.3802 18.3045 69.5256 17.6432L68.2373 16.6671C68.022 16.5033 67.8131 16.3396 67.6042 16.1727L66.9712 15.6721C66.1292 15.0108 65.3094 14.3212 64.689 13.4805C64.3756 13.0648 64.116 12.6082 63.9293 12.1265C63.7425 11.6447 63.6222 11.1314 63.5621 10.6119C63.502 10.0923 63.5083 9.5633 63.5526 9.03429C63.5748 8.76979 63.6064 8.50529 63.6476 8.24394C63.6887 7.98573 63.7489 7.73067 63.8312 7.47877C63.9894 6.9781 64.2363 6.50263 64.5845 6.10272C64.9295 5.70597 65.3853 5.39423 65.895 5.21475C65.6322 5.28087 65.379 5.38479 65.1416 5.51704C64.9042 5.65244 64.6858 5.82248 64.4895 6.01455C64.097 6.40501 63.8122 6.88993 63.6159 7.40319C63.5178 7.6614 63.4418 7.9259 63.3848 8.19355C63.331 8.46121 63.2836 8.72886 63.2487 8.99966C63.1759 9.54126 63.1569 10.0923 63.2013 10.6434C63.2424 11.1944 63.3532 11.7423 63.5463 12.265C63.7362 12.7877 64.0084 13.2821 64.3281 13.7324C64.6541 14.1858 65.034 14.592 65.4328 14.9667C65.8316 15.3446 66.2558 15.6909 66.6768 16.0279L67.3162 16.5285C67.5283 16.6954 67.7435 16.8623 67.9619 17.0261L69.2597 17.9927C69.6933 18.3139 70.1175 18.6383 70.529 18.9783C70.9405 19.3216 71.3361 19.6742 71.716 20.0489C72.0958 20.4268 72.4598 20.8141 72.7922 21.2298C72.9568 21.4344 73.1119 21.6517 73.2543 21.8721C73.3936 22.0957 73.5297 22.3256 73.6247 22.5617C73.8178 23.0435 73.8842 23.5788 73.8621 24.1078C73.8526 24.3723 73.8146 24.6368 73.7513 24.895C73.7513 24.9076 73.726 24.9422 73.7228 24.9548H73.726C73.7101 24.98 73.6911 25.0021 73.6721 25.0304C73.4791 25.3327 73.3651 25.698 73.2448 26.0853C73.0866 26.5922 72.9251 27.1181 72.5611 27.5337C72.368 27.751 72.137 27.9462 71.9091 28.1383C71.8204 28.2139 71.7318 28.2895 71.6463 28.3619C71.5482 28.4249 71.4438 28.4752 71.3393 28.5288C71.3393 28.5445 71.3361 28.5854 71.3266 28.6862L71.3393 28.5288C71.3203 28.5382 71.2918 28.5697 71.2728 28.5791C71.2127 28.6075 71.1557 28.6358 71.0956 28.6642C70.8392 28.7807 70.5765 28.8909 70.3137 28.9791C70.1808 29.0263 70.0479 29.0641 69.9117 29.0987C69.8864 29.105 69.8611 29.1082 69.8358 29.1145C70.0732 28.8311 70.2536 28.4973 70.3581 28.1446C70.4973 27.6817 70.5163 27.1937 70.4657 26.7213C70.4119 26.249 70.2916 25.7861 70.1175 25.3484C69.9402 24.9107 69.7155 24.492 69.4464 24.1015C69.3103 23.9063 69.1616 23.7205 68.997 23.541C68.8355 23.3678 68.6678 23.2041 68.4968 23.0466C68.1487 22.7318 67.7878 22.4389 67.4143 22.1618C66.6705 21.6045 65.8981 21.1101 65.1764 20.5654C64.4547 20.0206 63.7773 19.4255 63.2392 18.7107C63.1063 18.5343 62.9829 18.3486 62.8689 18.1596C62.7549 17.9676 62.6473 17.7723 62.5492 17.5708C62.3498 17.1678 62.182 16.7521 62.0428 16.3239C61.9066 15.8956 61.7895 15.4579 61.7072 15.0139C61.6218 14.57 61.568 14.1197 61.5426 13.6694C61.492 12.7657 61.5616 11.8494 61.8117 10.9677C61.4825 11.8242 61.3432 12.7499 61.34 13.6725C61.34 14.1354 61.3717 14.5983 61.4382 15.0549C61.5015 15.5146 61.5964 15.968 61.7262 16.4152C61.8528 16.8623 62.0111 17.3 62.2042 17.7251C62.2991 17.9361 62.4068 18.1502 62.5239 18.3517C62.6442 18.5595 62.7676 18.7548 62.9069 18.9468C63.1823 19.3279 63.4956 19.6837 63.8312 20.0112C64.1698 20.3386 64.5307 20.6346 64.8979 20.9149C65.6354 21.4785 66.4077 21.9823 67.1389 22.5176C67.4396 22.7412 67.6422 22.8703 68.193 23.3647C68.3576 23.5127 68.519 23.6701 68.6741 23.8307C68.8229 23.9881 68.9653 24.1582 69.0951 24.3345C69.3547 24.6903 69.5731 25.0808 69.7471 25.487C69.9181 25.8932 70.051 26.3183 70.1143 26.7528C70.1776 27.1874 70.1681 27.6313 70.0637 28.0501C69.9592 28.4689 69.744 28.8594 69.4338 29.1711L69.2154 29.3884L69.5192 29.3758C69.6807 29.3695 69.8231 29.3317 69.9656 29.2908C70.108 29.2499 70.2441 29.1963 70.3771 29.1428C70.6429 29.0326 70.9025 28.9098 71.1557 28.7712C71.2095 28.7397 71.2665 28.7083 71.3235 28.6768C71.352 28.7964 71.3836 28.9161 71.4121 29.042C71.5482 29.571 71.6115 30.1221 71.6717 30.6574C71.7223 31.0793 71.773 31.5202 71.8584 31.9327C71.9724 32.49 72.3649 33.0662 72.7447 33.6267C73.2163 34.3226 73.7038 35.0406 73.7418 35.8026C74.0013 35.8687 74.6123 35.9411 74.932 35.9758C75.3118 36.0199 75.4542 36.0388 75.5334 36.0608C76.1411 36.2497 76.2487 36.3064 76.3975 36.6811C76.4323 36.7693 76.4766 36.8826 76.5621 37.0401C76.5937 37.0999 76.6381 37.1723 76.6855 37.2511C76.8343 37.4935 77.0021 37.7643 77.0559 38.0351C77.1382 38.4539 77.0654 38.7971 76.847 39.0648C76.5368 39.4395 75.9544 39.619 75.0617 39.619C74.704 39.619 74.359 39.5906 74.0805 39.5686L73.919 39.556C73.6848 39.5371 73.4189 39.5308 73.1404 39.5277C72.5675 39.5182 71.9787 39.5056 71.4944 39.386C70.5227 39.1435 70.3802 38.583 70.2314 37.991C70.1871 37.8178 70.1428 37.6384 70.0763 37.4463C69.9244 37.0212 69.5351 36.8134 69.0888 36.5741C68.6646 36.3473 68.2246 36.1143 67.9492 35.6672C67.8195 35.4594 67.7435 35.2578 67.6675 35.0658C67.5599 34.7887 67.4555 34.5242 67.2054 34.2628C67.0155 34.0613 66.8002 33.8849 66.5755 33.696C66.2463 33.4221 65.9013 33.1387 65.6291 32.7671C65.0593 31.9988 64.3471 30.9786 63.8438 29.9017C63.7932 29.8009 63.752 29.6907 63.7077 29.5742C63.4387 29.2562 63.1316 28.9885 62.7423 28.809C62.6726 28.7775 62.5998 28.7492 62.527 28.7208C62.5017 28.724 62.4764 28.7271 62.4511 28.7303C62.3023 28.7492 62.1472 28.7681 61.9921 28.7681C60.9064 28.7649 59.998 28.3965 59.2066 27.6502C59.0927 27.54 58.9914 27.4172 58.8933 27.2976C58.697 27.0551 58.5482 26.8914 58.3805 26.8284H58.39V26.8221C58.3678 26.8158 58.3457 26.8095 58.3172 26.8032C58.3013 26.8032 58.2855 26.7969 58.2665 26.7969C58.2855 26.7969 58.3013 26.8001 58.3172 26.8032C58.3457 26.8095 58.3678 26.8158 58.39 26.8221C58.5799 26.715 58.7793 26.6206 58.9819 26.5324C59.2161 26.4253 59.4598 26.3246 59.7036 26.2112C59.9473 26.0979 60.191 25.9751 60.4221 25.8145C60.8779 25.5059 61.2862 25.106 61.5711 24.6337C61.8592 24.1613 62.0269 23.6418 62.1092 23.1128C61.8465 23.5788 61.5901 24.0354 61.2736 24.4258C60.957 24.8194 60.5804 25.1501 60.1625 25.4335C59.7574 25.7106 59.2699 25.9278 58.811 26.2112C58.583 26.3529 58.352 26.5104 58.1557 26.6993H58.1652C58.1209 26.7434 58.0608 26.7938 57.9816 26.8756H57.9911C57.9753 26.8977 57.9563 26.9166 57.9405 26.9355C57.6651 27.1716 57.3328 27.6597 57.1871 27.877C57.1428 27.9431 57.1048 27.9998 57.07 28.0501C56.6997 28.5729 56.3863 29.1554 56.0793 29.7159C55.7659 30.2953 55.4399 30.8967 55.0474 31.4509C54.8796 31.6871 54.7024 31.9232 54.5346 32.1531C54.101 32.7356 53.6546 33.3371 53.3128 33.9794C53.0501 34.4769 52.8855 34.9304 52.8095 35.3618C52.7272 35.8341 52.7177 36.0797 52.7209 36.1993C52.8032 36.1899 52.8918 36.1836 52.9646 36.1993C53.2495 36.2623 53.4647 36.4701 53.5692 36.5898C53.6736 36.7095 53.7179 36.8417 53.7464 36.9393C53.7591 36.9803 53.7749 37.0212 53.7876 37.0464C53.8129 37.0527 53.8636 37.059 53.9015 37.0653C53.9459 37.0684 53.9965 37.0747 54.0471 37.0873C54.2371 37.1283 54.4175 37.1975 54.5947 37.2668L54.6739 37.2983C55.0031 37.4242 55.4525 37.5974 55.6298 37.9753C55.8166 38.3626 55.8419 38.6869 55.7089 38.9577C55.481 39.4301 54.8385 39.5781 54.3257 39.7009C53.7338 39.8394 52.8317 40 51.8947 40C51.1129 40 50.4513 39.8866 49.9291 39.6568C49.5112 39.4741 48.7864 39.09 48.6154 38.5547C48.4603 38.0698 48.6788 37.6919 48.856 37.3896C48.9193 37.2825 48.9795 37.1786 49.0206 37.0779C49.0934 36.9015 49.1092 36.8165 49.1124 36.7787C49.0871 36.7661 49.0459 36.7504 49.0143 36.7346C48.875 36.6717 48.6819 36.5898 48.492 36.3946C48.0077 35.8971 48.2356 34.9776 48.2863 34.7981C48.4129 34.3541 48.5806 33.9731 48.7421 33.6047C48.9953 33.0316 49.2327 32.4932 49.2612 31.7941C49.3118 30.6164 49.6283 29.5207 49.9291 28.4626C50.1063 27.8455 50.2899 27.2063 50.4228 26.5513C50.5146 26.0884 50.4513 25.9247 50.4039 25.868C50.35 25.805 50.2266 25.7704 50.0367 25.7704C49.8911 25.7704 49.7138 25.7893 49.4606 25.8271C49.0586 25.8869 48.5965 25.9152 48.0425 25.9152C47.6342 25.9152 47.2259 25.8995 46.8619 25.8869C46.7321 25.8837 46.5991 25.8806 46.4662 25.8774C46.1243 25.8743 45.773 25.868 45.4185 25.8082C44.7379 25.6885 44.0131 25.3925 43.3135 25.1028C42.94 24.9485 42.5855 24.8037 42.25 24.6903C42.0126 24.6085 41.7657 24.5045 41.5061 24.3943C40.9174 24.1487 40.3096 23.8905 39.7874 23.8905H39.7557C39.2682 23.9 39.0119 24.2967 38.7112 24.7596C38.6225 24.895 38.5339 25.0304 38.4358 25.1627C38.1414 25.5563 37.9673 25.9436 37.8565 26.4663C37.8027 26.7213 37.7552 26.9827 37.7046 27.2566C37.5336 28.1824 37.3596 29.1365 36.9037 29.9741C36.7803 30.1977 36.6442 30.4086 36.5144 30.6133C36.1029 31.2431 35.7484 31.7878 35.9035 32.5467C36.0523 33.2867 36.736 33.8283 37.4007 34.3541C37.6476 34.5494 37.8787 34.7351 38.0876 34.9272C38.9042 35.6924 39.5246 35.9506 40.5407 35.9506C40.6388 35.9506 40.7433 35.9474 40.8541 35.9411C40.9649 35.9348 41.0693 35.9285 41.1674 35.9191C41.3067 35.9097 41.4428 35.8971 41.5758 35.8971C41.8955 35.8971 42.2753 35.9537 42.6741 36.3788C42.9558 36.678 43.3863 37.3518 43.3484 37.8871C43.2755 38.9105 41.9968 38.942 41.063 38.964C40.8098 38.9703 40.5692 38.9766 40.3983 39.0018C40.1989 39.0302 39.9994 39.0648 39.7905 39.0994C39.1954 39.2002 38.5782 39.3041 37.9515 39.3041C37.6761 39.3041 37.4229 39.2852 37.1728 39.2474C36.5049 39.1404 36.3087 38.8948 36.0333 38.5547C35.9605 38.4665 35.8814 38.3657 35.7801 38.2555C35.4635 37.906 35.0995 37.7108 34.6785 37.4841C34.6026 37.4431 34.5234 37.4022 34.4475 37.3581C33.4947 36.8323 32.7382 36.1773 31.9184 35.4405C31.7411 35.2799 31.5322 35.1035 31.3106 34.9209C30.6712 34.3856 29.9464 33.781 29.5475 33.1639C29.0981 32.4743 29.25 31.558 29.3829 30.7487C29.4304 30.4559 29.4779 30.1819 29.4906 29.9457C29.5539 28.6736 29.3924 27.6817 28.9809 26.8189L28.9493 26.7528C28.8385 26.5198 28.6518 26.1262 28.4333 26.038C28.3985 26.0254 28.37 26.016 28.3479 26.0097H28.2846C28.2308 26.0128 28.1833 26.0664 28.0693 26.2175C27.949 26.375 27.7971 26.5733 27.5439 26.7024C27.0786 26.9418 26.5785 27.0142 26.0973 27.0835C25.5307 27.1653 24.999 27.2409 24.5843 27.5873C24.3342 27.7951 24.1253 28.025 23.9196 28.2706C23.5619 29.0074 22.8086 29.7033 22.2008 29.9961C21.9349 30.1221 21.6564 30.1851 21.3905 30.2449C21.381 30.2449 21.3747 30.248 21.3683 30.2512C20.998 30.396 20.6182 30.5503 20.3143 30.7581C19.7983 31.114 19.4976 31.6367 19.1843 32.2381C18.9564 32.6695 18.8836 33.0662 18.7981 33.5291C18.7601 33.7433 18.7158 33.9637 18.6588 34.1998C18.6335 34.2943 18.6082 34.3888 18.5829 34.4832C18.4373 35.0311 18.298 35.5538 18.4594 36.0702C18.6177 36.0639 18.7823 35.9978 18.9564 35.9317C19.2033 35.8372 19.4881 35.727 19.811 35.7554C20.4409 35.8057 21.017 36.2277 21.4348 36.5331C21.8843 36.8638 22.2072 37.5282 22.2198 38.1516C22.2293 38.6303 22.0584 39.0365 21.7355 39.2978C21.4032 39.5655 20.7891 39.6316 20.2921 39.6883C20.1813 39.7009 20.0801 39.7135 20.0009 39.7229C19.4945 39.7985 18.9405 39.8677 18.3645 39.8615C18.3011 39.8615 18.2378 39.8615 18.1745 39.8615C17.2249 39.8552 15.924 39.8457 15.522 38.7657C15.3479 38.2933 15.2561 37.843 15.1675 37.4053C15.0219 36.6937 14.8889 36.023 14.4015 35.3869C13.7557 34.5399 13.895 33.7307 14.0375 32.8773C14.0659 32.7104 14.0944 32.5372 14.1198 32.3578C14.2084 31.728 14.2495 31.199 14.1609 30.67C14.1419 30.5472 14.0881 30.3897 14.0311 30.2228C13.9108 29.8607 13.7747 29.4514 13.8634 29.1019C14.0564 28.3493 14.7686 28.0942 15.3954 27.8707C15.7246 27.7542 16.0348 27.6408 16.25 27.4771C16.0221 25.8082 16.7913 24.0984 17.4085 22.716C17.6016 22.2878 17.7535 21.8312 17.9181 21.3463C18.184 20.5559 18.4594 19.7372 18.9184 19.0508L19.0766 18.8114C19.5958 18.0337 20.1307 17.2307 20.6182 16.4183C20.6878 16.3018 20.7574 16.1916 20.8239 16.0814C21.1056 15.6217 21.3715 15.1903 21.5646 14.6676C21.84 13.9276 22.1185 13.3451 22.4762 12.794C21.7703 12.8349 20.4282 12.8475 17.8168 12.8759C15.3194 12.9011 12.4864 12.9294 11.9167 13.0207C10.2612 13.2884 6.24759 14.2393 4.72823 17.3189C4.1743 18.443 3.87676 20.2631 4.53198 21.6045C5.00995 22.5806 6.60844 24.2117 7.59918 24.2967C7.73213 24.3062 7.85874 24.3188 7.97902 24.3282C9.22299 24.429 10.046 24.4983 11.2298 25.2949C12.0306 25.8334 12.8916 26.6426 13.8665 27.7793L14.1546 28.1163L13.7241 28.2265C12.6637 28.4973 11.5685 28.7775 10.486 28.7775C9.71678 28.7775 9.01092 28.639 8.33037 28.3524C7.48523 27.9966 6.92813 27.7636 6.52297 26.8756C6.47866 26.7812 6.46283 26.6521 6.43751 26.4127C6.42168 26.2805 6.39953 26.0506 6.36787 25.9436C4.57313 25.3012 3.31017 24.218 2.61063 22.7255C1.97124 21.3652 1.83196 19.6994 2.20231 17.7881C2.48402 16.3302 3.25636 15.0517 4.43386 14.0882C8.56461 10.7063 13.3791 10.4891 18.4721 10.2592L19.14 10.2277C21.3114 10.1269 22.9668 9.80261 25.0496 9.06893C27.3666 8.25338 29.3101 7.62046 31.4879 7.50396H31.5354C32.102 7.47562 32.7065 7.45987 33.3301 7.45987C35.1755 7.45987 37.0462 7.58268 38.8536 7.70233C40.6547 7.82199 42.5159 7.94165 44.3454 7.94165C44.5765 7.94165 44.8044 7.94165 45.0386 7.93535C47.4158 7.89441 49.7771 7.50711 52.0625 7.13239C53.0374 6.9718 54.044 6.80806 55.0474 6.67266L55.1645 6.65692C56.4939 6.47429 57.7854 6.14995 59.0958 5.91379C59.1402 5.90749 59.1876 5.8949 59.2319 5.88545C59.2288 5.88545 59.2256 5.89175 59.2224 5.8949C59.156 5.94528 59.0863 5.99566 59.023 6.04919C58.8236 6.21923 58.6337 6.39871 58.4564 6.59394C58.2823 6.79232 58.1209 6.99699 57.9721 7.21426C57.8202 7.43153 57.6904 7.65825 57.5701 7.89126C57.4499 8.12428 57.3391 8.36359 57.2505 8.61235C57.1587 8.85796 57.0827 9.11302 57.0194 9.36807C56.9877 9.49717 56.9624 9.62628 56.9371 9.75853L56.8769 10.1364C56.7123 11.1283 56.5066 12.1202 56.0951 13.0207C55.883 13.4647 55.6203 13.8898 55.2405 14.1984C55.0537 14.3558 54.8353 14.4723 54.5979 14.5511C54.3605 14.6298 54.1073 14.6581 53.8509 14.6487C54.101 14.7022 54.3668 14.7148 54.6264 14.6676C54.8891 14.6235 55.1423 14.5164 55.3671 14.3716C55.5918 14.2267 55.7881 14.0378 55.9622 13.8363C56.1363 13.6316 56.2787 13.408 56.4085 13.1782C56.6649 12.7184 56.8453 12.2241 56.9941 11.7234C57.07 11.4746 57.1333 11.2227 57.1871 10.9708C57.2441 10.7189 57.2916 10.4639 57.3359 10.212L57.3961 9.8341C57.415 9.71444 57.4404 9.59479 57.4657 9.47198C57.5195 9.23267 57.5891 8.99651 57.6714 8.76034C57.7506 8.52733 57.8392 8.29746 57.9437 8.07075C58.0481 7.84403 58.1621 7.62676 58.2887 7.41264C58.4121 7.19852 58.5514 6.9907 58.7033 6.79232C58.8489 6.59394 59.0104 6.40186 59.1876 6.22238C59.3142 6.08698 59.4503 5.95788 59.5928 5.83822V5.82562H59.6149C59.7416 5.71542 59.8745 5.6115 60.0106 5.51389C60.0992 5.46351 60.1879 5.41628 60.2797 5.36904C60.65 5.17067 60.8304 4.90616 61.052 4.57553C61.166 4.40235 61.2862 4.22601 61.4413 4.04338C61.7642 3.66867 62.1314 3.29081 62.6537 3.0389C62.8056 2.96333 62.9639 2.9035 63.1348 2.85627C63.809 2.66419 64.4769 2.49415 65.2334 2.51304C65.3505 2.51304 65.4645 2.51619 65.5753 2.51619C66.0121 2.51619 66.4267 2.52249 66.9174 2.64529C67.3257 2.74921 67.6454 2.71457 68.0885 2.51304C68.3607 2.39024 68.6298 2.25484 68.8988 2.12259C69.0571 2.04387 69.2122 1.96514 69.3673 1.88957C70.2378 1.47078 71.2665 1.04253 72.4693 1.26295C73.0581 1.37001 73.65 1.2724 74.2736 1.16534C74.3179 1.15589 74.359 1.14645 74.4033 1.14015C74.9889 1.04253 75.5935 0.948069 76.2234 1.03309C76.695 1.09606 77.1508 1.18423 77.5782 1.59043C77.7649 1.76992 77.8757 1.99663 77.977 2.19816C78.0466 2.33986 78.1258 2.5036 78.1954 2.54768C78.3252 2.62955 78.5151 2.67049 78.7145 2.71142C78.9994 2.77125 79.3223 2.84052 79.604 3.0515C80.0534 3.39157 80.4143 3.90798 80.6485 4.54405C80.7213 4.73613 80.7625 4.95654 80.81 5.19271C80.984 6.06179 81.1391 6.46169 81.7596 6.37667C81.8229 6.36723 81.8957 6.34518 81.9716 6.3074C82.1615 6.21608 82.3673 6.04289 82.5161 5.85711L82.9465 5.30607L83.0098 5.99881C83.0668 6.58764 82.8579 7.07257 82.4179 7.38115C82.725 7.62676 83.127 8.00147 83.4625 8.47065C83.5954 8.64384 83.6999 8.83592 83.8012 9.0217C83.836 9.08467 83.8708 9.14765 83.9056 9.21063L83.8803 9.22637C83.9468 9.39641 84.0038 9.57275 84.0386 9.75538C84.0766 9.96005 84.0829 10.0671 84.0829 10.1332C84.0829 10.149 84.0829 10.1616 84.0829 10.1742C84.0924 10.212 84.2032 10.3914 84.2728 10.4985C84.4248 10.741 84.6495 10.9866 84.8679 11.2196C84.928 11.2826 84.985 11.3455 85.0388 11.4054C85.2984 11.6951 85.5326 11.9659 85.7574 12.2304C86.1973 12.7468 86.6152 13.238 87.1754 13.7607C87.2451 13.8237 87.3115 13.8835 87.3717 13.937C87.7199 14.2425 88.0174 14.5038 87.9224 15.1305L87.9193 15.1336ZM58.1336 26.8095C58.1114 26.8095 58.0861 26.8095 58.0639 26.8158C58.0893 26.8158 58.1114 26.8127 58.1336 26.8095ZM80.5092 8.0676C80.2244 8.17466 79.9237 8.23764 79.623 8.28487C79.0152 8.38248 78.3758 8.41712 77.7364 8.6218C77.5782 8.67533 77.4199 8.7383 77.268 8.81702C77.116 8.89574 76.9672 8.99336 76.8375 9.10672C76.5716 9.33343 76.3658 9.62943 76.2424 9.94116C76.1759 10.1018 76.1316 10.2686 76.1126 10.4387C76.0936 10.6119 76.1031 10.785 76.1443 10.9519C76.1917 11.1188 76.2709 11.2763 76.3785 11.4022C76.4893 11.5282 76.6286 11.6226 76.7742 11.6888C76.6539 11.5817 76.5526 11.4621 76.4861 11.3298C76.4165 11.1975 76.3753 11.0559 76.3658 10.9142C76.3468 10.6308 76.4291 10.3442 76.5653 10.0955C76.7045 9.83725 76.8849 9.61683 77.1097 9.44364C77.3313 9.27361 77.594 9.1508 77.8757 9.05948C78.4423 8.87685 79.0722 8.81073 79.6958 8.63754C80.0091 8.55252 80.3193 8.43916 80.6042 8.26913C80.8859 8.09909 81.1392 7.87237 81.2974 7.59527C81.0569 7.8031 80.791 7.96369 80.5061 8.06445L80.5092 8.0676ZM28.2751 26.0191C28.2751 26.0191 30.8105 21.3778 35.5933 21.1951C35.5933 21.1951 30.6586 20.3859 28.2751 26.0191ZM36.3751 18.358C36.296 16.9599 36.5461 15.7665 35.9257 14.2267C35.8244 13.978 35.6028 13.8174 35.3971 13.6442C36.4764 14.5637 35.7294 16.7836 36.1916 19.542C36.6537 22.3004 39.9741 23.8874 39.9741 23.8874C39.4582 23.5064 38.9644 23.097 38.5086 22.6436C37.3311 21.4785 36.4701 20.0363 36.3751 18.3612V18.358ZM51.6383 22.3539C51.4674 22.6467 51.3693 22.9742 51.3091 23.2985C51.192 23.9535 51.2078 24.6148 51.2933 25.2634C51.306 25.3453 51.3186 25.424 51.3281 25.4964C51.3376 25.572 51.344 25.6476 51.3503 25.7232C51.3661 25.8743 51.3693 26.0286 51.3693 26.1829C51.3693 26.4883 51.3471 26.8001 51.3091 27.1086C51.2427 27.7321 51.1066 28.3619 51.0717 29.0105C51.2965 28.406 51.5244 27.8077 51.67 27.1685C51.7428 26.8504 51.7903 26.523 51.8061 26.1923C51.8156 26.0254 51.8124 25.8586 51.8061 25.6917C51.7998 25.6066 51.7903 25.5248 51.7808 25.4429C51.7713 25.3579 51.7586 25.276 51.7491 25.2004C51.6668 24.5833 51.6225 23.9567 51.6668 23.3426C51.6921 23.0372 51.7396 22.7318 51.8409 22.4484C51.9422 22.165 52.1163 21.9005 52.3917 21.7241C52.2334 21.7651 52.0846 21.8501 51.958 21.9603C51.8314 22.0705 51.727 22.209 51.6383 22.3539Z" fill="white"/>
<path fill-rule="evenodd" clip-rule="evenodd" d="M85.9202 16.1336C85.8608 16.5461 85.598 16.9082 85.2351 17.0877C85.0974 17.1538 84.9535 17.1916 84.8065 17.1979C84.7251 17.7049 84.4529 18.0733 84.0024 18.2937C83.4831 18.5456 82.8042 18.574 82.1503 18.596C81.2869 18.6306 80.098 18.7031 79.2846 18.977C78.49 20.0948 79.8665 20.5357 80.5485 19.5816C81.2587 19.8713 82.2442 20.5136 81.6748 21.3638C81.6247 21.4394 81.5716 21.5213 81.5184 21.6283C81.387 21.8928 81.3995 22.2109 81.4151 22.5478C81.4308 22.8973 81.4433 23.2563 81.3088 23.6026C81.2055 23.864 81.0366 24.0529 80.8113 24.1631C80.4609 24.3332 80.0417 24.2922 79.635 24.2513C79.4504 24.2324 79.2784 24.2167 79.1188 24.2198H78.9123L78.8529 24.0246C78.7872 23.7979 78.7715 23.6215 78.7622 23.4924C78.7528 23.4011 78.7496 23.3381 78.7246 23.2846C78.7027 23.2563 78.6808 23.2279 78.6589 23.1964C78.612 23.1555 78.5432 23.1114 78.4399 23.0548L78.4274 23.0485C78.296 22.976 78.2021 22.9351 78.1396 22.9131C78.1114 22.5289 78.0489 22.1479 77.9268 21.7732C77.833 21.4992 77.7016 21.2347 77.542 20.9891C77.3793 20.7467 77.1823 20.5262 76.9664 20.331C76.7536 20.1358 76.5284 19.9594 76.3094 19.7894C76.0873 19.6194 75.8714 19.4493 75.6712 19.2698C75.4709 19.0904 75.2832 18.9046 75.1362 18.6936C75.0611 18.5928 74.9923 18.4795 74.9391 18.3724C74.8797 18.2528 74.8327 18.1331 74.7889 18.0103C74.7045 17.7647 74.6544 17.5096 74.6419 17.2514C74.6263 16.9901 74.6513 16.7287 74.6982 16.4674C74.7921 15.9415 74.9954 15.4283 75.1956 14.9087C75.4021 14.3923 75.6211 13.8664 75.7713 13.3154C75.9183 12.7675 75.9934 12.1787 75.8808 11.6245C75.8902 12.1881 75.7588 12.7329 75.5586 13.2461C75.3646 13.7625 75.108 14.2537 74.8671 14.767C74.6263 15.274 74.3979 15.8061 74.2727 16.3824C74.2102 16.6721 74.182 16.9712 74.1914 17.2735C74.2039 17.5758 74.2571 17.8749 74.3541 18.1615C74.4041 18.3032 74.4604 18.4448 74.5261 18.5771C74.5981 18.7188 74.6794 18.8448 74.7702 18.9676C74.9516 19.21 75.1644 19.4178 75.3865 19.6036C75.8339 19.972 76.3094 20.268 76.7318 20.605C77.151 20.9387 77.4951 21.3607 77.7172 21.8582C77.8799 22.2046 78.0051 22.6045 78.0864 22.9886C78.1239 23.1429 78.1583 23.3004 78.1865 23.461C78.3116 23.9774 78.3492 24.3647 77.7172 25.0165C77.5545 25.1834 77.3355 25.3251 77.1259 25.4636C77.0196 25.5329 76.9226 25.599 76.8319 25.662C76.6535 25.8194 76.4877 25.9958 76.3751 26.2256C76.3751 26.2477 76.3751 26.2697 76.3751 26.2918L76.4033 26.8837L75.934 26.5216C75.5335 26.213 75.3489 25.7785 75.1675 25.3597C75.0361 25.0543 74.9172 24.774 74.7295 24.5693C74.5136 25.1424 74.0475 25.7659 73.7033 26.0965C73.55 26.2445 73.3874 26.4146 73.2309 26.5783C72.9744 26.8428 72.7116 27.1199 72.4644 27.3277L72.1641 27.5828L72.0265 27.2112C71.9545 27.0097 71.9576 26.6854 71.9639 26.3138C71.9639 26.2099 71.9639 26.0776 71.9639 25.9517C72.0577 25.6809 72.1172 25.3943 72.1516 25.1109C72.211 24.5693 72.1735 24.0089 72.0014 23.4767C71.9576 23.3444 71.9013 23.2122 71.8419 23.0925C71.7824 22.9697 71.7167 22.8469 71.651 22.7273C71.5165 22.4911 71.3632 22.2612 71.2068 22.0408C70.8877 21.5968 70.531 21.1875 70.1619 20.7939C69.4298 19.9941 68.5851 19.3045 67.7404 18.6432L66.4671 17.6671C66.2543 17.5033 66.0479 17.3396 65.8414 17.1727L65.2157 16.6721C64.3835 16.0108 63.5732 15.3212 62.96 14.4805C62.6503 14.0648 62.3937 13.6082 62.2092 13.1265C62.0246 12.6447 61.9057 12.1314 61.8463 11.6119C61.7868 11.0923 61.7931 10.5633 61.8369 10.0343C61.8588 9.76979 61.8901 9.50529 61.9307 9.24394C61.9714 8.98573 62.0308 8.73067 62.1122 8.47877C62.2686 7.9781 62.5126 7.50263 62.8568 7.10272C63.1978 6.70597 63.6483 6.39423 64.152 6.21475C63.8923 6.28087 63.642 6.38479 63.4074 6.51704C63.1727 6.65244 62.9569 6.82248 62.7629 7.01455C62.375 7.40501 62.0934 7.88993 61.8994 8.40319C61.8025 8.6614 61.7274 8.9259 61.6711 9.19355C61.6179 9.46121 61.5709 9.72886 61.5365 9.99966C61.4646 10.5413 61.4458 11.0923 61.4896 11.6434C61.5303 12.1944 61.6398 12.7423 61.8306 13.265C62.0183 13.7877 62.2874 14.2821 62.6034 14.7324C62.9256 15.1858 63.301 15.592 63.6952 15.9667C64.0894 16.3446 64.5086 16.6909 64.9247 17.0279L65.5567 17.5285C65.7663 17.6954 65.979 17.8623 66.1949 18.0261L67.4776 18.9927C67.9062 19.3139 68.3254 19.6383 68.7321 19.9783C69.1388 20.3216 69.5299 20.6742 69.9053 21.0489C70.2807 21.4268 70.6405 21.8141 70.969 22.2298C71.1317 22.4344 71.285 22.6517 71.4258 22.8721C71.5634 23.0957 71.698 23.3256 71.7918 23.5617C71.9827 24.0435 72.0484 24.5788 72.0265 25.1078C72.0171 25.3723 71.9795 25.6368 71.917 25.895C71.917 25.9076 71.8919 25.9422 71.8888 25.9548H71.8919C71.8763 25.98 71.8575 26.0021 71.8387 26.0304C71.6479 26.3327 71.5353 26.698 71.4164 27.0853C71.26 27.5922 71.1004 28.1181 70.7406 28.5337C70.5498 28.751 70.3214 28.9462 70.0962 29.1383C70.0086 29.2139 69.921 29.2895 69.8365 29.3619C69.7395 29.4249 69.6363 29.4752 69.533 29.5288C69.533 29.5445 69.5299 29.5854 69.5205 29.6862L69.533 29.5288C69.5143 29.5382 69.4861 29.5697 69.4673 29.5791C69.4079 29.6075 69.3516 29.6358 69.2921 29.6642C69.0387 29.7807 68.7791 29.8909 68.5194 29.9791C68.388 30.0263 68.2566 30.0641 68.1221 30.0987C68.097 30.105 68.072 30.1082 68.047 30.1145C68.2816 29.8311 68.4599 29.4973 68.5632 29.1446C68.7008 28.6817 68.7196 28.1937 68.6696 27.7213C68.6164 27.249 68.4975 26.7861 68.3254 26.3484C68.1502 25.9107 67.9281 25.492 67.6622 25.1015C67.5276 24.9063 67.3806 24.7205 67.2179 24.541C67.0584 24.3678 66.8926 24.2041 66.7236 24.0466C66.3795 23.7318 66.0228 23.4389 65.6537 23.1618C64.9185 22.6045 64.1551 22.1101 63.4418 21.5654C62.7285 21.0206 62.059 20.4255 61.5272 19.7107C61.3958 19.5343 61.2737 19.3486 61.1611 19.1596C61.0485 18.9676 60.9421 18.7723 60.8451 18.5708C60.648 18.1678 60.4822 17.7521 60.3446 17.3239C60.21 16.8956 60.0943 16.4579 60.013 16.0139C59.9285 15.57 59.8753 15.1197 59.8503 14.6694C59.8002 13.7657 59.869 12.8494 60.1162 11.9677C59.7908 12.8242 59.6532 13.7499 59.65 14.6725C59.65 15.1354 59.6813 15.5983 59.747 16.0549C59.8096 16.5146 59.9035 16.968 60.0317 17.4152C60.1569 17.8623 60.3133 18.3 60.5041 18.7251C60.598 18.9361 60.7044 19.1502 60.8201 19.3517C60.939 19.5595 61.061 19.7548 61.1987 19.9468C61.4708 20.3279 61.7806 20.6837 62.1122 21.0112C62.4469 21.3386 62.8036 21.6346 63.1665 21.9149C63.8954 22.4785 64.6588 22.9823 65.3815 23.5176C65.6787 23.7412 65.8789 23.8703 66.4233 24.3647C66.586 24.5127 66.7455 24.6701 66.8988 24.8307C67.0459 24.9881 67.1866 25.1582 67.3149 25.3345C67.5714 25.6903 67.7873 26.0808 67.9594 26.487C68.1283 26.8932 68.2597 27.3183 68.3223 27.7528C68.3849 28.1874 68.3755 28.6313 68.2722 29.0501C68.169 29.4689 67.9563 29.8594 67.6497 30.1711L67.4338 30.3884L67.7341 30.3758C67.8937 30.3695 68.0345 30.3317 68.1753 30.2908C68.316 30.2499 68.4506 30.1963 68.582 30.1428C68.8448 30.0326 69.1013 29.9098 69.3516 29.7712C69.4048 29.7397 69.4611 29.7083 69.5174 29.6768C69.5455 29.7964 69.5768 29.9161 69.605 30.042C69.7395 30.571 69.8021 31.1221 69.8615 31.6574C69.9116 32.0793 69.9616 32.5202 70.0461 32.9327C70.1587 33.49 70.5467 34.0662 70.9221 34.6267C71.3882 35.3226 71.87 36.0406 71.9076 36.8026C72.1641 36.8687 72.7679 36.9411 73.0839 36.9758C73.4593 37.0199 73.6001 37.0388 73.6783 37.0608C74.279 37.2497 74.3854 37.3064 74.5324 37.6811C74.5668 37.7693 74.6106 37.8826 74.6951 38.0401C74.7264 38.0999 74.7702 38.1723 74.8171 38.2511C74.9641 38.4935 75.1299 38.7643 75.1831 39.0351C75.2645 39.4539 75.1925 39.7971 74.9766 40.0648C74.6701 40.4395 74.0944 40.619 73.2122 40.619C72.8586 40.619 72.5176 40.5906 72.2423 40.5686L72.0828 40.556C71.8513 40.5371 71.5885 40.5308 71.3132 40.5277C70.7469 40.5182 70.165 40.5056 69.6863 40.386C68.7259 40.1435 68.5851 39.583 68.438 38.991C68.3942 38.8178 68.3504 38.6384 68.2848 38.4463C68.1346 38.0212 67.7498 37.8134 67.3086 37.5741C66.8894 37.3473 66.4546 37.1143 66.1824 36.6672C66.0541 36.4594 65.979 36.2578 65.9039 36.0658C65.7976 35.7887 65.6943 35.5242 65.4472 35.2628C65.2595 35.0613 65.0467 34.8849 64.8246 34.696C64.4992 34.4221 64.1582 34.1387 63.8892 33.7671C63.326 32.9988 62.6221 31.9786 62.1247 30.9017C62.0746 30.8009 62.034 30.6907 61.9902 30.5742C61.7242 30.2562 61.4208 29.9885 61.036 29.809C60.9671 29.7775 60.8952 29.7492 60.8232 29.7208C60.7982 29.724 60.7732 29.7271 60.7481 29.7303C60.6011 29.7492 60.4478 29.7681 60.2945 29.7681C59.2214 29.7649 58.3235 29.3965 57.5414 28.6502C57.4288 28.54 57.3287 28.4172 57.2317 28.2976C57.0377 28.0551 56.8907 27.8914 56.7249 27.8284H56.7343V27.8221C56.7124 27.8158 56.6905 27.8095 56.6623 27.8032C56.6467 27.8032 56.631 27.7969 56.6122 27.7969C56.631 27.7969 56.6467 27.8001 56.6623 27.8032C56.6905 27.8095 56.7124 27.8158 56.7343 27.8221C56.922 27.715 57.1191 27.6206 57.3193 27.5324C57.5508 27.4253 57.7917 27.3246 58.0326 27.2112C58.2735 27.0979 58.5144 26.9751 58.7428 26.8145C59.1933 26.5059 59.5969 26.106 59.8784 25.6337C60.1631 25.1613 60.3289 24.6418 60.4103 24.1128C60.1506 24.5788 59.8972 25.0354 59.5843 25.4258C59.2715 25.8194 58.8992 26.1501 58.4862 26.4335C58.0858 26.7106 57.604 26.9278 57.1504 27.2112C56.9251 27.3529 56.6967 27.5104 56.5028 27.6993H56.5121C56.4683 27.7434 56.4089 27.7938 56.3307 27.8756H56.3401C56.3244 27.8977 56.3057 27.9166 56.29 27.9355C56.0178 28.1716 55.6893 28.6597 55.5454 28.877C55.5016 28.9431 55.4641 28.9998 55.4297 29.0501C55.0636 29.5729 54.7539 30.1554 54.4504 30.7159C54.1407 31.2953 53.8185 31.8967 53.4305 32.4509C53.2647 32.6871 53.0895 32.9232 52.9237 33.1531C52.4951 33.7356 52.054 34.3371 51.7161 34.9794C51.4565 35.4769 51.2938 35.9304 51.2187 36.3618C51.1373 36.8341 51.128 37.0797 51.1311 37.1993C51.2124 37.1899 51.3 37.1836 51.372 37.1993C51.6535 37.2623 51.8663 37.4701 51.9695 37.5898C52.0728 37.7095 52.1166 37.8417 52.1447 37.9393C52.1572 37.9803 52.1729 38.0212 52.1854 38.0464C52.2104 38.0527 52.2605 38.059 52.298 38.0653C52.3418 38.0684 52.3919 38.0747 52.4419 38.0873C52.6296 38.1283 52.808 38.1975 52.9832 38.2668L53.0614 38.2983C53.3867 38.4242 53.831 38.5974 54.0062 38.9753C54.1908 39.3626 54.2158 39.6869 54.0844 39.9577C53.8592 40.4301 53.2241 40.5781 52.7172 40.7009C52.1322 40.8394 51.2406 41 50.3145 41C49.5418 41 48.8879 40.8866 48.3717 40.6568C47.9588 40.4741 47.2423 40.09 47.0734 39.5547C46.9201 39.0698 47.136 38.6919 47.3112 38.3896C47.3737 38.2825 47.4332 38.1786 47.4739 38.0779C47.5458 37.9015 47.5615 37.8165 47.5646 37.7787C47.5396 37.7661 47.4989 37.7504 47.4676 37.7346C47.3299 37.6717 47.1391 37.5898 46.9514 37.3946C46.4727 36.8971 46.698 35.9776 46.748 35.7981C46.8732 35.3541 47.039 34.9731 47.1985 34.6047C47.4488 34.0316 47.6835 33.4932 47.7116 32.7941C47.7617 31.6164 48.0745 30.5207 48.3717 29.4626C48.5469 28.8455 48.7284 28.2063 48.8598 27.5513C48.9505 27.0884 48.8879 26.9247 48.841 26.868C48.7878 26.805 48.6658 26.7704 48.4781 26.7704C48.3342 26.7704 48.159 26.7893 47.9087 26.8271C47.5114 26.8869 47.0546 26.9152 46.5071 26.9152C46.1036 26.9152 45.7 26.8995 45.3402 26.8869C45.2119 26.8837 45.0805 26.8806 44.9491 26.8774C44.6113 26.8743 44.264 26.868 43.9136 26.8082C43.241 26.6885 42.5245 26.3925 41.8331 26.1028C41.464 25.9485 41.1136 25.8037 40.782 25.6903C40.5473 25.6085 40.3033 25.5045 40.0468 25.3943C39.4648 25.1487 38.8642 24.8905 38.348 24.8905H38.3167C37.8349 24.9 37.5815 25.2967 37.2843 25.7596C37.1967 25.895 37.1091 26.0304 37.0121 26.1627C36.7211 26.5563 36.5491 26.9436 36.4396 27.4663C36.3864 27.7213 36.3395 27.9827 36.2894 28.2566C36.1205 29.1824 35.9484 30.1365 35.4979 30.9741C35.3759 31.1977 35.2413 31.4086 35.1131 31.6133C34.7064 32.2431 34.356 32.7878 34.5093 33.5467C34.6563 34.2867 35.3321 34.8283 35.9891 35.3541C36.2331 35.5494 36.4615 35.7351 36.668 35.9272C37.4751 36.6924 38.0883 36.9506 39.0926 36.9506C39.1895 36.9506 39.2928 36.9474 39.4023 36.9411C39.5118 36.9348 39.615 36.9285 39.712 36.9191C39.8497 36.9097 39.9842 36.8971 40.1156 36.8971C40.4316 36.8971 40.807 36.9537 41.2012 37.3788C41.4796 37.678 41.9051 38.3518 41.8675 38.8871C41.7956 39.9105 40.5317 39.942 39.6088 39.964C39.3585 39.9703 39.1207 39.9766 38.9518 40.0018C38.7547 40.0302 38.5576 40.0648 38.3511 40.0994C37.7629 40.2002 37.1529 40.3041 36.5334 40.3041C36.2612 40.3041 36.011 40.2852 35.7638 40.2474C35.1037 40.1404 34.9097 39.8948 34.6375 39.5547C34.5656 39.4665 34.4874 39.3657 34.3873 39.2555C34.0744 38.906 33.7146 38.7108 33.2985 38.4841C33.2235 38.4431 33.1452 38.4022 33.0702 38.3581C32.1285 37.8323 31.3808 37.1773 30.5705 36.4405C30.3953 36.2799 30.1888 36.1035 29.9698 35.9209C29.3378 35.3856 28.6214 34.781 28.2272 34.1639C27.783 33.4743 27.9331 32.558 28.0645 31.7487C28.1115 31.4559 28.1584 31.1819 28.1709 30.9457C28.2335 29.6736 28.0739 28.6817 27.6672 27.8189L27.6359 27.7528C27.5264 27.5198 27.3418 27.1262 27.126 27.038C27.0916 27.0254 27.0634 27.016 27.0415 27.0097H26.9789C26.9258 27.0128 26.8788 27.0664 26.7662 27.2175C26.6473 27.375 26.4971 27.5733 26.2469 27.7024C25.787 27.9418 25.2927 28.0142 24.8171 28.0835C24.2571 28.1653 23.7315 28.2409 23.3217 28.5873C23.0745 28.7951 22.8681 29.025 22.6647 29.2706C22.3112 30.0074 21.5666 30.7033 20.9659 30.9961C20.7031 31.1221 20.4278 31.1851 20.165 31.2449C20.1556 31.2449 20.1494 31.248 20.1431 31.2512C19.7771 31.396 19.4017 31.5503 19.1013 31.7581C18.5914 32.114 18.2942 32.6367 17.9844 33.2381C17.7592 33.6695 17.6872 34.0662 17.6028 34.5291C17.5652 34.7433 17.5214 34.9637 17.4651 35.1998C17.4401 35.2943 17.4151 35.3888 17.39 35.4832C17.2461 36.0311 17.1085 36.5538 17.268 37.0702C17.4244 37.0639 17.5871 36.9978 17.7592 36.9317C18.0032 36.8372 18.2848 36.727 18.6039 36.7554C19.2265 36.8057 19.7959 37.2277 20.2088 37.5331C20.6531 37.8638 20.9722 38.5282 20.9847 39.1516C20.9941 39.6303 20.8251 40.0365 20.506 40.2978C20.1775 40.5655 19.5706 40.6316 19.0794 40.6883C18.9699 40.7009 18.8698 40.7135 18.7916 40.7229C18.291 40.7985 17.7436 40.8677 17.1742 40.8615C17.1116 40.8615 17.049 40.8615 16.9865 40.8615C16.0479 40.8552 14.7621 40.8457 14.3648 39.7657C14.1927 39.2933 14.102 38.843 14.0144 38.4053C13.8704 37.6937 13.7391 37.023 13.2573 36.3869C12.619 35.5399 12.7567 34.7307 12.8975 33.8773C12.9256 33.7104 12.9538 33.5372 12.9788 33.3578C13.0664 32.728 13.1071 32.199 13.0195 31.67C13.0007 31.5472 12.9475 31.3897 12.8912 31.2228C12.7723 30.8607 12.6378 30.4514 12.7254 30.1019C12.9163 29.3493 13.6202 29.0942 14.2396 28.8707C14.565 28.7542 14.8716 28.6408 15.0843 28.4771C14.8591 26.8082 15.6193 25.0984 16.2294 23.716C16.4202 23.2878 16.5704 22.8312 16.733 22.3463C16.9958 21.5559 17.268 20.7372 17.7217 20.0508L17.8781 19.8114C18.3912 19.0337 18.9199 18.2307 19.4017 17.4183C19.4705 17.3018 19.5393 17.1916 19.605 17.0814C19.8835 16.6217 20.1463 16.1903 20.3371 15.6676C20.6093 14.9276 20.8846 14.3451 21.2381 13.794C20.5404 13.8349 19.214 13.8475 16.6329 13.8759C14.1645 13.9011 11.3645 13.9294 10.8014 14.0207C9.16516 14.2884 5.1982 15.2393 3.69651 18.3189C3.14902 19.443 2.85494 21.2631 3.50254 22.6045C3.97495 23.5806 5.55485 25.2117 6.53408 25.2967C6.66547 25.3062 6.79061 25.3188 6.9095 25.3282C8.139 25.429 8.95242 25.4983 10.1225 26.2949C10.914 26.8334 11.765 27.6426 12.7285 28.7793L13.0132 29.1163L12.5878 29.2265C11.5397 29.4973 10.4572 29.7775 9.38728 29.7775C8.62705 29.7775 7.92939 29.639 7.25676 29.3524C6.42145 28.9966 5.87083 28.7636 5.47038 27.8756C5.42658 27.7812 5.41094 27.6521 5.38591 27.4127C5.37027 27.2805 5.34837 27.0506 5.31708 26.9436C3.54321 26.3012 2.29493 25.218 1.60353 23.7255C0.971572 22.3652 0.833917 20.6994 1.19995 18.7881C1.47839 17.3302 2.24175 16.0517 3.40556 15.0882C7.48827 11.7063 12.2467 11.4891 17.2805 11.2592L17.9407 11.2277C20.0868 11.1269 21.723 10.8026 23.7816 10.0689C26.0717 9.25338 27.9926 8.62046 30.145 8.50396H30.1919C30.7519 8.47562 31.3495 8.45987 31.9658 8.45987C33.7897 8.45987 35.6387 8.58268 37.4251 8.70233C39.2052 8.82199 41.0448 8.94165 42.853 8.94165C43.0814 8.94165 43.3067 8.94165 43.5382 8.93535C45.8877 8.89441 48.2216 8.50711 50.4804 8.13239C51.4439 7.9718 52.4388 7.80806 53.4305 7.67266L53.5463 7.65692C54.8603 7.47429 56.1367 7.14995 57.4319 6.91379C57.4757 6.90749 57.5226 6.8949 57.5664 6.88545C57.5633 6.88545 57.5602 6.89175 57.5571 6.8949C57.4914 6.94528 57.4225 6.99566 57.36 7.04919C57.1629 7.21923 56.9752 7.39871 56.8 7.59394C56.6279 7.79232 56.4683 7.99699 56.3213 8.21426C56.1711 8.43153 56.0429 8.65825 55.924 8.89126C55.8051 9.12428 55.6956 9.36359 55.608 9.61235C55.5173 9.85796 55.4422 10.113 55.3796 10.3681C55.3483 10.4972 55.3233 10.6263 55.2983 10.7585L55.2388 11.1364C55.0761 12.1283 54.8728 13.1202 54.4661 14.0207C54.2565 14.4647 53.9968 14.8898 53.6214 15.1984C53.4368 15.3558 53.2209 15.4723 52.9863 15.5511C52.7517 15.6298 52.5014 15.6581 52.248 15.6487C52.4951 15.7022 52.7579 15.7148 53.0145 15.6676C53.2741 15.6235 53.5244 15.5164 53.7465 15.3716C53.9687 15.2267 54.1626 15.0378 54.3347 14.8363C54.5068 14.6316 54.6475 14.408 54.7758 14.1782C55.0292 13.7184 55.2076 13.2241 55.3546 12.7234C55.4297 12.4746 55.4922 12.2227 55.5454 11.9708C55.6017 11.7189 55.6487 11.4639 55.6925 11.212L55.7519 10.8341C55.7707 10.7144 55.7957 10.5948 55.8207 10.472C55.8739 10.2327 55.9427 9.99651 56.0241 9.76034C56.1023 9.52733 56.1899 9.29746 56.2931 9.07075C56.3964 8.84403 56.509 8.62676 56.6342 8.41264C56.7562 8.19852 56.8938 7.9907 57.044 7.79232C57.1879 7.59394 57.3475 7.40186 57.5226 7.22238C57.6478 7.08698 57.7823 6.95788 57.9231 6.83822V6.82562H57.945C58.0701 6.71542 58.2015 6.6115 58.3361 6.51389C58.4237 6.46351 58.5113 6.41628 58.602 6.36904C58.968 6.17067 59.1464 5.90616 59.3653 5.57553C59.478 5.40235 59.5969 5.22601 59.7502 5.04338C60.0693 4.66867 60.4322 4.29081 60.9484 4.0389C61.0985 3.96333 61.255 3.9035 61.4239 3.85627C62.0903 3.66419 62.7504 3.49415 63.4981 3.51304C63.6139 3.51304 63.7265 3.51619 63.836 3.51619C64.2677 3.51619 64.6776 3.52249 65.1625 3.64529C65.5661 3.74921 65.882 3.71457 66.32 3.51304C66.5891 3.39024 66.855 3.25484 67.1209 3.12259C67.2774 3.04387 67.4307 2.96514 67.584 2.88957C68.4443 2.47078 69.4611 2.04253 70.6499 2.26295C71.2318 2.37001 71.8168 2.2724 72.4332 2.16534C72.477 2.15589 72.5176 2.14645 72.5614 2.14015C73.1402 2.04253 73.7378 1.94807 74.3603 2.03309C74.8265 2.09606 75.277 2.18423 75.6993 2.59043C75.8839 2.76992 75.9934 2.99663 76.0935 3.19816C76.1624 3.33986 76.2406 3.5036 76.3094 3.54768C76.4377 3.62955 76.6254 3.67049 76.8225 3.71142C77.104 3.77125 77.4231 3.84052 77.7016 4.0515C78.1458 4.39157 78.5025 4.90798 78.734 5.54405C78.806 5.73613 78.8466 5.95654 78.8935 6.19271C79.0656 7.06179 79.2189 7.46169 79.8321 7.37667C79.8947 7.36723 79.9666 7.34518 80.0417 7.3074C80.2294 7.21608 80.4328 7.04289 80.5798 6.85711L81.0053 6.30607L81.0679 6.99881C81.1242 7.58764 80.9177 8.07257 80.4828 8.38115C80.7863 8.62676 81.1836 9.00147 81.5153 9.47065C81.6466 9.64384 81.7499 9.83592 81.85 10.0217C81.8844 10.0847 81.9188 10.1477 81.9532 10.2106L81.9282 10.2264C81.9939 10.3964 82.0502 10.5727 82.0846 10.7554C82.1222 10.9601 82.1284 11.0671 82.1284 11.1332C82.1284 11.149 82.1284 11.1616 82.1284 11.1742C82.1378 11.212 82.2473 11.3914 82.3162 11.4985C82.4663 11.741 82.6884 11.9866 82.9043 12.2196C82.9638 12.2826 83.0201 12.3455 83.0732 12.4054C83.3298 12.6951 83.5613 12.9659 83.7834 13.2304C84.2183 13.7468 84.6313 14.238 85.185 14.7607C85.2538 14.8237 85.3195 14.8835 85.379 14.937C85.7231 15.2425 86.0172 15.5038 85.9233 16.1305L85.9202 16.1336ZM56.4809 27.8095C56.459 27.8095 56.4339 27.8095 56.412 27.8158C56.4371 27.8158 56.459 27.8127 56.4809 27.8095ZM78.5963 9.0676C78.3148 9.17466 78.0176 9.23764 77.7204 9.28487C77.1197 9.38248 76.4877 9.41712 75.8558 9.6218C75.6993 9.67533 75.5429 9.7383 75.3927 9.81702C75.2426 9.89574 75.0955 9.99336 74.9673 10.1067C74.7045 10.3334 74.5011 10.6294 74.3791 10.9412C74.3134 11.1018 74.2696 11.2686 74.2508 11.4387C74.2321 11.6119 74.2414 11.785 74.2821 11.9519C74.329 12.1188 74.4073 12.2763 74.5136 12.4022C74.6231 12.5282 74.7608 12.6226 74.9047 12.6888C74.7858 12.5817 74.6857 12.4621 74.62 12.3298C74.5512 12.1975 74.5105 12.0559 74.5011 11.9142C74.4823 11.6308 74.5637 11.3442 74.6982 11.0955C74.8359 10.8372 75.0142 10.6168 75.2363 10.4436C75.4553 10.2736 75.715 10.1508 75.9934 10.0595C76.5534 9.87685 77.176 9.81073 77.7923 9.63754C78.102 9.55252 78.4086 9.43916 78.6902 9.26913C78.9686 9.09909 79.2189 8.87237 79.3753 8.59527C79.1376 8.8031 78.8748 8.96369 78.5932 9.06445L78.5963 9.0676ZM26.9696 27.0191C26.9696 27.0191 29.4755 22.3778 34.2027 22.1951C34.2027 22.1951 29.3253 21.3859 26.9696 27.0191ZM34.9754 19.358C34.8972 17.9599 35.1444 16.7665 34.5312 15.2267C34.4311 14.978 34.2121 14.8174 34.0087 14.6442C35.0755 15.5637 34.3372 17.7836 34.794 20.542C35.2507 23.3004 38.5326 24.8874 38.5326 24.8874C38.0226 24.5064 37.5345 24.097 37.084 23.6436C35.9202 22.4785 35.0693 21.0363 34.9754 19.3612V19.358ZM50.0611 23.3539C49.8922 23.6467 49.7952 23.9742 49.7358 24.2985C49.62 24.9535 49.6357 25.6148 49.7201 26.2634C49.7326 26.3453 49.7452 26.424 49.7545 26.4964C49.7639 26.572 49.7702 26.6476 49.7764 26.7232C49.7921 26.8743 49.7952 27.0286 49.7952 27.1829C49.7952 27.4883 49.7733 27.8001 49.7358 28.1086C49.6701 28.7321 49.5355 29.3619 49.5011 30.0105C49.7233 29.406 49.9485 28.8077 50.0924 28.1685C50.1644 27.8504 50.2113 27.523 50.2269 27.1923C50.2363 27.0254 50.2332 26.8586 50.2269 26.6917C50.2207 26.6066 50.2113 26.5248 50.2019 26.4429C50.1925 26.3579 50.18 26.276 50.1706 26.2004C50.0893 25.5833 50.0455 24.9567 50.0893 24.3426C50.1143 24.0372 50.1613 23.7318 50.2614 23.4484C50.3615 23.165 50.5335 22.9005 50.8057 22.7241C50.6493 22.7651 50.5023 22.8501 50.3771 22.9603C50.252 23.0705 50.1487 23.209 50.0611 23.3539Z" fill="#F8ECD7"/>
<path d="M71.9518 29.2346C72.0587 29.1797 72.1656 29.1281 72.266 29.0635C72.3535 28.9892 72.4442 28.9117 72.5348 28.8342C72.768 28.6372 73.0045 28.4369 73.2021 28.2141C73.5745 27.7878 73.7397 27.2484 73.9017 26.7285C74.0248 26.3312 74.1414 25.9566 74.3389 25.6466C74.3584 25.6175 74.3778 25.5949 74.394 25.5691H74.3908C74.394 25.5561 74.4199 25.5206 74.4199 25.5077C74.4847 25.2429 74.5236 24.9716 74.5333 24.7003C74.5559 24.1577 74.4879 23.6087 74.2903 23.1146C74.1932 22.8724 74.0539 22.6366 73.9114 22.4073C73.7656 22.1812 73.6069 21.9584 73.4385 21.7485C73.0984 21.3222 72.7259 20.9249 72.3373 20.5374C71.9486 20.1531 71.5437 19.7913 71.1227 19.4393C70.7016 19.0905 70.2676 18.7579 69.8239 18.4285L68.4959 17.437C68.2724 17.269 68.0522 17.0979 67.8352 16.9267L67.1809 16.4132C66.7501 16.0676 66.3161 15.7124 65.908 15.3248C65.4999 14.9405 65.1112 14.5239 64.7776 14.0588C64.4505 13.597 64.1719 13.09 63.9776 12.5539C63.78 12.0177 63.6666 11.4558 63.6245 10.8906C63.5792 10.3254 63.5986 9.76026 63.6731 9.20478C63.7087 8.92703 63.7573 8.65252 63.8124 8.378C63.8707 8.10349 63.9484 7.8322 64.0488 7.56738C64.2497 7.04096 64.5412 6.5436 64.9428 6.14313C65.1436 5.94613 65.3671 5.77173 65.61 5.63286C65.8529 5.49722 66.112 5.39064 66.3809 5.32282C65.8594 5.50691 65.393 5.82663 65.0399 6.23356C64.6837 6.64372 64.431 7.13139 64.2691 7.64489C64.1849 7.90326 64.1233 8.16485 64.0812 8.42968C64.0391 8.69773 64.0067 8.96902 63.9841 9.2403C63.9387 9.78287 63.9322 10.3254 63.9938 10.8583C64.0553 11.3912 64.1784 11.9176 64.3695 12.4117C64.5606 12.9059 64.8262 13.3742 65.1468 13.8005C65.7817 14.6628 66.6206 15.37 67.4821 16.0483L68.1299 16.5618C68.3437 16.7329 68.5574 16.9009 68.7777 17.0688L70.0959 18.07C70.9704 18.7482 71.845 19.4555 72.6029 20.2758C72.9851 20.6795 73.3543 21.0993 73.6847 21.5547C73.8466 21.7808 74.0053 22.0165 74.1446 22.2587C74.2126 22.3815 74.2806 22.5074 74.3422 22.6334C74.4037 22.7561 74.462 22.8917 74.5074 23.0274C74.6855 23.5732 74.7244 24.148 74.6628 24.7035C74.6272 24.9942 74.5657 25.2881 74.4685 25.5658C74.4685 25.695 74.4685 25.8307 74.4685 25.9372C74.462 26.3183 74.4588 26.651 74.5333 26.8577L74.6758 27.2388L74.9867 26.9772C75.2426 26.764 75.5147 26.4798 75.7803 26.2085C75.9422 26.0406 76.1106 25.8662 76.2693 25.7144C76.6256 25.3753 77.1082 24.7358 77.3317 24.148C77.526 24.358 77.6491 24.6454 77.7852 24.9587C77.973 25.3882 78.1641 25.8339 78.5787 26.1504L79.0645 26.5218L79.0354 25.9146C79.0354 25.892 79.0354 25.8694 79.0354 25.8468C79.152 25.611 79.3237 25.4302 79.5083 25.2687C79.6022 25.2041 79.7026 25.1363 79.8127 25.0652C80.0297 24.9231 80.2565 24.7778 80.4249 24.6066C81.0792 23.9381 81.0403 23.5409 80.9107 23.0112C80.8816 22.8465 80.846 22.685 80.8071 22.5268C80.7229 22.1328 80.5933 21.7226 80.4249 21.3674C80.1949 20.8571 79.8386 20.4243 79.4046 20.082C78.9674 19.7364 78.4751 19.4329 78.0119 19.055C77.7819 18.8645 77.5617 18.6513 77.3738 18.4026C77.2799 18.2767 77.1957 18.1475 77.1212 18.0022C77.0532 17.8665 76.9949 17.7212 76.943 17.5758C76.8426 17.282 76.7876 16.9751 76.7746 16.6651C76.7649 16.3551 76.7941 16.0483 76.8588 15.7511C76.9884 15.1601 77.2248 14.6143 77.4742 14.0944C77.7236 13.5679 77.9892 13.0641 78.19 12.5345C78.3973 12.0081 78.5334 11.4493 78.5236 10.8712C78.6402 11.4396 78.5625 12.0436 78.4103 12.6055C78.2548 13.1707 78.0281 13.71 77.8143 14.2397C77.607 14.7726 77.3965 15.299 77.2993 15.8383C77.2507 16.1064 77.2248 16.3744 77.241 16.6425C77.254 16.9073 77.3058 17.1689 77.3932 17.4208C77.4386 17.5468 77.4872 17.6695 77.5487 17.7922C77.6038 17.902 77.675 18.0183 77.7528 18.1216C77.905 18.338 78.0993 18.5286 78.3066 18.7127C78.5139 18.8967 78.7374 19.0711 78.9674 19.2455C79.1941 19.4199 79.4273 19.6008 79.6475 19.801C79.871 20.0013 80.0751 20.2273 80.2435 20.476C80.4087 20.7279 80.5447 20.9992 80.6419 21.2802C80.7682 21.6645 80.833 22.0553 80.8622 22.4493C80.9269 22.4719 81.0241 22.5139 81.1601 22.5882L81.1731 22.5946C81.28 22.6527 81.3512 22.698 81.3998 22.7399C81.4225 22.7722 81.4452 22.8013 81.4678 22.8304C81.4937 22.8853 81.497 22.9499 81.5067 23.0435C81.5164 23.1759 81.5326 23.3568 81.6006 23.5893L81.6622 23.7896H81.8759C82.0411 23.7863 82.2193 23.8025 82.4104 23.8219C82.8314 23.8638 83.2654 23.9058 83.6282 23.7314C83.8614 23.6184 84.0363 23.4246 84.1432 23.1566C84.2825 22.8013 84.2695 22.4331 84.2533 22.0747C84.2371 21.7291 84.2242 21.4029 84.3602 21.1316C84.4153 21.0218 84.4703 20.9378 84.5221 20.8603C85.1116 19.9883 84.0914 19.3295 83.3561 19.0324C82.65 20.011 81.2249 19.5588 82.0476 18.4123C82.8897 18.1313 84.1205 18.0571 85.0145 18.0215C85.6914 17.9989 86.3943 17.9699 86.9319 17.7115C87.3983 17.4854 87.6801 17.1076 87.7643 16.5876C87.9166 16.5811 88.0656 16.5424 88.2081 16.4746C88.5838 16.2905 88.8558 15.9191 88.9174 15.496L88.9206 15.4928C89.0178 14.8501 88.7133 14.582 88.357 14.2688C88.2955 14.2139 88.2275 14.1525 88.1562 14.0879C87.5829 13.5518 87.1554 13.048 86.7052 12.5183C86.4752 12.247 86.2355 11.9693 85.97 11.6722C85.9149 11.6108 85.8566 11.5462 85.7951 11.4816C85.5716 11.2426 85.3416 10.9907 85.1861 10.7421C85.1149 10.6323 85.0015 10.4482 84.9918 10.4094C84.9918 10.3965 84.9918 10.3836 84.9918 10.3674C84.9918 10.2996 84.9853 10.1898 84.9465 9.97988C84.9108 9.79256 84.8525 9.6117 84.7845 9.43731L84.8104 9.42116C84.7748 9.35657 84.7392 9.29197 84.7035 9.22738C84.5999 9.03684 84.493 8.83983 84.357 8.66221C84.0136 8.181 83.6023 7.79668 83.2881 7.54477C83.7383 7.22827 83.9521 6.73092 83.8938 6.12699L83.829 5.41648L83.3885 5.98165C83.2363 6.1722 83.0258 6.34983 82.8314 6.44348C82.7537 6.48224 82.6792 6.50485 82.6144 6.51454C81.9796 6.60173 81.8209 6.19158 81.6427 5.30021C81.5941 5.05799 81.552 4.83192 81.4775 4.63492C81.2379 3.98254 80.8686 3.45289 80.4087 3.1041C80.1204 2.88772 79.7901 2.81666 79.4986 2.7553C79.2945 2.71332 79.1002 2.67133 78.9674 2.58736C78.8961 2.54215 78.8151 2.37421 78.7439 2.22888C78.6402 2.02219 78.5269 1.78966 78.3358 1.60557C77.8985 1.18896 77.4321 1.09853 76.9495 1.03394C76.305 0.946738 75.6863 1.04363 75.0871 1.14374C75.0418 1.1502 74.9997 1.15989 74.9543 1.16958C74.3163 1.27938 73.7106 1.3795 73.1081 1.2697C71.8773 1.04363 70.8247 1.48285 69.934 1.91238C69.7753 1.98989 69.6166 2.07063 69.4546 2.15137C69.1793 2.28701 68.904 2.42589 68.6254 2.55184C68.172 2.75853 67.8449 2.79406 67.427 2.68748C66.925 2.56153 66.5007 2.55507 66.0537 2.55507C65.9404 2.55507 65.8238 2.55184 65.7039 2.55184C64.9298 2.53246 64.2464 2.70686 63.5565 2.90386C63.3816 2.95231 63.2197 3.01367 63.0642 3.09118C62.5298 3.34955 62.1541 3.7371 61.8237 4.12142C61.665 4.30873 61.5419 4.48959 61.4253 4.66721C61.1986 5.00632 61.014 5.27761 60.635 5.48107C60.5411 5.52951 60.4504 5.57796 60.3597 5.62963C60.2204 5.72975 60.0844 5.83632 59.9548 5.94936H59.9321V5.96228C59.7864 6.085 59.6471 6.21741 59.5176 6.35629C59.3362 6.54037 59.171 6.73738 59.022 6.94084C58.8665 7.1443 58.724 7.35746 58.5977 7.57707C58.4682 7.79668 58.3516 8.01952 58.2447 8.25205C58.1378 8.48458 58.0471 8.72034 57.9661 8.95933C57.8819 9.20155 57.8106 9.44377 57.7556 9.68921C57.7297 9.81517 57.7038 9.93789 57.6843 10.0606L57.6228 10.4482C57.5774 10.7065 57.5289 10.9681 57.4706 11.2265C57.4155 11.4849 57.3507 11.7432 57.273 11.9984C57.1208 12.5119 56.9361 13.0189 56.6738 13.4904C56.541 13.7262 56.3952 13.9555 56.2171 14.1654C56.0389 14.3721 55.8381 14.5659 55.6082 14.7144C55.3782 14.863 55.1191 14.9728 54.8503 15.018C54.5847 15.0665 54.3126 15.0535 54.0567 14.9986C54.3191 15.0083 54.5782 14.9793 54.8211 14.8985C55.064 14.8178 55.2875 14.6983 55.4786 14.5368C55.8673 14.2203 56.1361 13.7843 56.3531 13.3289C56.7742 12.4053 56.9847 11.388 57.1531 10.3707L57.2147 9.9831C57.2406 9.84746 57.2665 9.71505 57.2989 9.58264C57.3637 9.32104 57.4414 9.05945 57.5353 8.80754C57.626 8.5524 57.7394 8.30695 57.8625 8.06796C57.9855 7.82897 58.1183 7.59644 58.2738 7.3736C58.426 7.15076 58.5912 6.94084 58.7694 6.73738C58.9508 6.53714 59.1451 6.35306 59.3491 6.17866C59.4139 6.12376 59.4852 6.07208 59.5532 6.02041C59.5564 6.01718 59.5597 6.01072 59.5629 6.01072C59.5176 6.02041 59.469 6.03333 59.4236 6.03979C58.0827 6.28201 56.7612 6.61465 55.4009 6.80197L55.281 6.81812C54.2543 6.95699 53.2243 7.12493 52.2267 7.28963C49.8882 7.67395 47.472 8.07119 45.0395 8.11318C44.7998 8.11964 44.5666 8.11964 44.3302 8.11964C42.4581 8.11964 40.5536 7.99691 38.7106 7.87419C36.8612 7.75146 34.947 7.62551 33.0587 7.62551C32.4206 7.62551 31.802 7.64166 31.2222 7.67073H31.1736C28.9453 7.79022 26.9565 8.43937 24.5856 9.27583C22.4544 10.0283 20.7605 10.361 18.5386 10.4643L17.8551 10.4966C12.6437 10.7324 7.71727 10.9552 3.49046 14.4238C2.28558 15.412 1.49528 16.7232 1.20701 18.2185C0.828056 20.1789 0.970569 21.8873 1.62483 23.2825C2.34064 24.8133 3.63297 25.9243 5.46945 26.5832C5.50184 26.693 5.52451 26.9287 5.54071 27.0644C5.56662 27.3098 5.58281 27.4422 5.62816 27.5391C6.04274 28.4498 6.61279 28.6888 7.47759 29.0538C8.17396 29.3477 8.89624 29.4898 9.68331 29.4898C10.791 29.4898 11.9117 29.2023 12.9967 28.9246L13.4372 28.8116L13.1425 28.466C12.1449 27.3001 11.2639 26.4701 10.4445 25.9179C9.23309 25.1008 8.39097 25.0297 7.11807 24.9264C6.99499 24.9167 6.86543 24.9038 6.7294 24.8941C5.71561 24.8069 4.07995 23.134 3.59087 22.1328C2.92041 20.757 3.22487 18.8903 3.79168 17.7373C5.34637 14.5788 9.45334 13.6035 11.1473 13.3289C11.7303 13.2353 14.6292 13.2062 17.1847 13.1804C19.8568 13.1513 21.2301 13.1384 21.9524 13.0964C21.5864 13.6616 21.3014 14.2591 21.0196 15.018C20.822 15.5541 20.5499 15.9966 20.2617 16.4681C20.1937 16.5811 20.1224 16.6942 20.0511 16.8137C19.5523 17.6469 19.005 18.4704 18.4738 19.2682L18.3118 19.5136C17.8422 20.2176 17.5604 21.0573 17.2883 21.868C17.1199 22.3653 16.9644 22.8336 16.7669 23.2728C16.1353 24.6906 15.3482 26.4443 15.5814 28.156C15.3612 28.3239 15.0437 28.4402 14.7069 28.5597C14.0656 28.789 13.3368 29.0506 13.1392 29.8224C13.0486 30.1809 13.1878 30.6007 13.3109 30.9721C13.3692 31.1433 13.4243 31.3048 13.4437 31.4307C13.5344 31.9733 13.4923 32.5159 13.4016 33.1618C13.3757 33.3459 13.3465 33.5235 13.3174 33.6947C13.1716 34.5699 13.0291 35.3999 13.6899 36.2687C14.1887 36.921 14.3247 37.6089 14.4737 38.3388C14.5644 38.7877 14.6583 39.2496 14.8365 39.734C15.2478 40.8417 16.579 40.8514 17.5507 40.8579C17.6155 40.8579 17.6802 40.8579 17.745 40.8579C18.3345 40.8644 18.9013 40.7933 19.4195 40.7158C19.5005 40.7061 19.6042 40.6932 19.7175 40.6803C20.226 40.6221 20.8544 40.5543 21.1945 40.2798C21.5249 40.0117 21.6998 39.5951 21.69 39.1042C21.6771 38.4648 21.3467 37.7833 20.8868 37.4442C20.4592 37.131 19.8698 36.6982 19.2252 36.6465C18.8948 36.6175 18.6033 36.7305 18.3507 36.8274C18.1726 36.8952 18.0041 36.963 17.8422 36.9695C17.677 36.4398 17.8195 35.9037 17.9685 35.3418C17.9944 35.2449 18.0203 35.148 18.0462 35.0511C18.1045 34.8089 18.1499 34.5828 18.1887 34.3632C18.2762 33.8885 18.3507 33.4815 18.5839 33.0391C18.9046 32.4222 19.2123 31.8861 19.7402 31.5212C20.0511 31.308 20.4398 31.1498 20.8188 31.0012C20.8252 30.998 20.8317 30.9948 20.8414 30.9948C21.1135 30.9334 21.3985 30.8688 21.6706 30.7396C22.2925 30.4393 23.0633 29.7255 23.4293 28.9698C23.6399 28.7179 23.8536 28.4821 24.1095 28.269C24.5338 27.9137 25.078 27.8362 25.6577 27.7523C26.1501 27.6812 26.6618 27.6069 27.1379 27.3615C27.397 27.2291 27.5525 27.0256 27.6756 26.8641C27.7922 26.7091 27.8408 26.6542 27.8958 26.651H27.9606C27.9833 26.6574 28.0124 26.6671 28.0481 26.68C28.2716 26.7705 28.4627 27.1742 28.576 27.4132L28.6084 27.481C29.0295 28.3659 29.1947 29.3832 29.1299 30.6879C29.1169 30.9302 29.0683 31.2111 29.0197 31.5115C28.8837 32.3415 28.7282 33.2813 29.1882 33.9886C29.5963 34.6216 30.338 35.2417 30.9923 35.7907C31.219 35.978 31.4328 36.1589 31.6141 36.3236C32.453 37.0793 33.2271 37.751 34.202 38.2904C34.2798 38.3356 34.3608 38.3776 34.4385 38.4196C34.8693 38.6521 35.2417 38.8523 35.5656 39.2108C35.6693 39.3238 35.7503 39.4272 35.8248 39.5176C36.1065 39.8664 36.3074 40.1183 36.9908 40.2281C37.2466 40.2669 37.5058 40.2863 37.7875 40.2863C38.4289 40.2863 39.0604 40.1797 39.6694 40.0763C39.8831 40.0408 40.0872 40.0053 40.2912 39.9762C40.4661 39.9504 40.7123 39.9439 40.9714 39.9375C41.9269 39.9149 43.2354 39.8826 43.3099 38.833C43.3488 38.2839 42.9083 37.5928 42.62 37.286C42.2119 36.85 41.8233 36.7919 41.4961 36.7919C41.3601 36.7919 41.2208 36.8048 41.0783 36.8145C40.9779 36.8241 40.871 36.8306 40.7577 36.8371C40.6443 36.8435 40.5374 36.8468 40.437 36.8468C39.3973 36.8468 38.7625 36.5819 37.9268 35.7971C37.7131 35.6001 37.4766 35.4096 37.224 35.2094C36.5438 34.67 35.8442 34.1145 35.692 33.3556C35.5332 32.5773 35.896 32.0185 36.3171 31.3726C36.4499 31.1627 36.5891 30.9463 36.7155 30.717C37.1819 29.8579 37.36 28.8794 37.5349 27.9299C37.5867 27.6489 37.6353 27.3809 37.6904 27.1193C37.8037 26.5831 37.9819 26.1859 38.2831 25.7822C38.3835 25.6466 38.4742 25.5077 38.5649 25.3688C38.8726 24.8941 39.1349 24.4872 39.6337 24.4775H39.6661C40.2006 24.4775 40.8224 24.7423 41.4249 24.9942C41.6905 25.1072 41.9431 25.2138 42.186 25.2978C42.5293 25.414 42.8921 25.5626 43.2743 25.7208C43.9901 26.018 44.7318 26.3216 45.4282 26.4443C45.791 26.5056 46.1505 26.5121 46.5003 26.5153C46.6363 26.5186 46.7724 26.5218 46.9051 26.525C47.2776 26.5379 47.6955 26.5541 48.1133 26.5541C48.6801 26.5541 49.153 26.525 49.5643 26.4637C49.8234 26.4249 50.0048 26.4055 50.1538 26.4055C50.3481 26.4055 50.4745 26.441 50.5295 26.5056C50.5781 26.5638 50.6429 26.7317 50.5489 27.2065C50.4129 27.8782 50.2251 28.5338 50.0437 29.1668C49.736 30.252 49.4121 31.3758 49.3603 32.5837C49.3311 33.3007 49.0882 33.8529 48.8291 34.4407C48.6639 34.8186 48.4922 35.2094 48.3627 35.6647C48.3108 35.8488 48.0776 36.7919 48.5732 37.3021C48.7675 37.5024 48.9651 37.5863 49.1076 37.6509C49.14 37.6671 49.1821 37.6832 49.208 37.6961C49.2048 37.7349 49.1886 37.8221 49.1141 38.0029C49.072 38.1063 49.0105 38.2129 48.9457 38.3227C48.7643 38.6327 48.5408 39.0203 48.6995 39.5176C48.8744 40.0666 49.6161 40.4607 50.0437 40.648C50.5781 40.8837 51.255 41 52.0551 41C53.0138 41 53.9369 40.8353 54.5426 40.6932C55.0673 40.5672 55.7248 40.4154 55.958 39.931C56.094 39.6533 56.0681 39.3206 55.877 38.9234C55.6956 38.5358 55.2357 38.3582 54.8988 38.229L54.8179 38.1967C54.6365 38.1257 54.4519 38.0546 54.2575 38.0126C54.2057 37.9997 54.1539 37.9933 54.1085 37.99C54.0697 37.9836 54.0179 37.9771 53.9919 37.9706C53.979 37.9448 53.9628 37.9028 53.9498 37.8608C53.9207 37.7607 53.8753 37.6251 53.7685 37.5024C53.6616 37.3796 53.4413 37.1665 53.1498 37.1019C53.0753 37.0857 52.9846 37.0922 52.9004 37.1019C52.8972 36.9792 52.9069 36.7273 52.9911 36.2428C53.0688 35.8004 53.2373 35.3353 53.5061 34.825C53.8559 34.1662 54.3126 33.5494 54.7563 32.9519C54.928 32.7161 55.1094 32.4739 55.281 32.2317C55.6827 31.6633 56.0163 31.0464 56.3369 30.4522C56.6511 29.8773 56.9718 29.2798 57.3507 28.7437C57.3863 28.6921 57.4252 28.6339 57.4706 28.5661C57.6196 28.3433 57.9596 27.8427 58.2414 27.6005C58.2576 27.5811 58.2771 27.5617 58.2932 27.5391H58.2835C58.3645 27.4551 58.426 27.4035 58.4714 27.3582H58.4617C58.6625 27.1645 58.8989 27.003 59.1321 26.8577C59.6018 26.567 60.1006 26.3442 60.5152 26.06C60.9427 25.7693 61.3281 25.4302 61.652 25.0265C61.9759 24.626 62.2383 24.1577 62.5071 23.6798C62.4229 24.2223 62.2512 24.7552 61.9565 25.2396C61.665 25.7241 61.2472 26.1342 60.7808 26.4507C60.5443 26.6154 60.2949 26.7414 60.0455 26.8577C59.7961 26.9739 59.5467 27.0773 59.307 27.1871C59.0997 27.2775 58.8957 27.3744 58.7013 27.4842M71.9518 29.2346C71.9518 29.2508 71.9486 29.2928 71.9389 29.3961L71.9518 29.2346ZM71.9518 29.2346C71.9324 29.2443 71.9033 29.2766 71.8838 29.2863C71.8223 29.3154 71.764 29.3444 71.7024 29.3735C71.4401 29.493 71.1713 29.606 70.9024 29.6965C70.7664 29.7449 70.6304 29.7837 70.4911 29.8192C70.4652 29.8256 70.4393 29.8289 70.4133 29.8353C70.6563 29.5447 70.8409 29.2023 70.9478 28.8406C71.0903 28.3659 71.1097 27.8653 71.0579 27.3809C71.0028 26.8964 70.8797 26.4217 70.7016 25.9728C70.5202 25.5238 70.2903 25.0943 70.015 24.6938C69.8757 24.4936 69.7235 24.3031 69.555 24.119C69.3898 23.9414 69.2182 23.7734 69.0433 23.6119C68.687 23.289 68.3178 22.9886 67.9356 22.7044C67.1744 22.1328 66.3841 21.6257 65.6456 21.067C64.9072 20.5083 64.214 19.8979 63.6634 19.1648C63.5274 18.9839 63.401 18.7934 63.2844 18.5996C63.1678 18.4026 63.0577 18.2024 62.9573 17.9957C62.7533 17.5823 62.5816 17.156 62.4391 16.7168C62.2998 16.2776 62.18 15.8286 62.0958 15.3733C62.0083 14.9179 61.9532 14.4561 61.9273 13.9942C61.8755 13.0674 61.9468 12.1275 62.2026 11.2233C61.8658 12.1017 61.7233 13.0512 61.72 13.9975C61.72 14.4722 61.7524 14.947 61.8204 15.4153C61.8852 15.8868 61.9824 16.3518 62.1152 16.8104C62.2448 17.269 62.4067 17.718 62.6043 18.1539C62.7014 18.3703 62.8116 18.5899 62.9314 18.7966C63.0545 19.0098 63.1808 19.21 63.3233 19.407C63.6051 19.7978 63.9258 20.1627 64.2691 20.4986C64.6156 20.8345 64.9849 21.1381 65.3606 21.4255C66.1153 22.0036 66.9056 22.5203 67.6538 23.0694C67.9615 23.2987 68.1688 23.4311 68.7323 23.9381C68.9008 24.0899 69.066 24.2514 69.2247 24.4161C69.3769 24.5776 69.5226 24.752 69.6554 24.9328C69.921 25.2978 70.1445 25.6982 70.3227 26.1149C70.4976 26.5315 70.6336 26.9675 70.6984 27.4132C70.7632 27.8588 70.7534 28.3142 70.6465 28.7437C70.5397 29.1733 70.3194 29.5737 70.002 29.8935L69.7785 30.1163L70.0895 30.1034C70.2546 30.0969 70.4004 30.0582 70.5461 30.0162C70.6919 29.9742 70.8312 29.9193 70.9672 29.8644C71.2393 29.7514 71.5049 29.6254 71.764 29.4833C71.819 29.451 71.8773 29.4187 71.9356 29.3864C71.9648 29.5092 71.9972 29.6319 72.0263 29.7611C72.1656 30.3036 72.2304 30.8688 72.2919 31.4178C72.3437 31.8506 72.3956 32.3027 72.483 32.7258C72.5996 33.2974 73.0013 33.8885 73.3899 34.4633C73.8725 35.1771 74.3713 35.9134 74.4102 36.695C74.6758 36.7628 75.3009 36.8371 75.628 36.8726C76.0167 36.9178 76.1625 36.9372 76.2434 36.9598C76.8653 37.1536 76.9754 37.2117 77.1277 37.596C77.1633 37.6864 77.2086 37.8027 77.2961 37.9642C77.3285 38.0256 77.3738 38.0998 77.4224 38.1806C77.5746 38.4293 77.7463 38.707 77.8014 38.9847C77.8856 39.4143 77.8111 39.7663 77.5876 40.0408C77.2702 40.4251 76.6742 40.6092 75.7608 40.6092C75.3948 40.6092 75.0418 40.5802 74.7568 40.5575L74.5916 40.5446C74.3519 40.5253 74.0798 40.5188 73.7948 40.5156C73.2085 40.5059 72.6061 40.493 72.1105 40.3702C71.1162 40.1216 70.9704 39.5467 70.8182 38.9395C70.7729 38.7619 70.7275 38.5778 70.6595 38.3808C70.504 37.9448 70.1056 37.7317 69.649 37.4862C69.2149 37.2537 68.7647 37.0147 68.4829 36.5561C68.3501 36.3429 68.2724 36.1362 68.1947 35.9392C68.0845 35.655 67.9777 35.3838 67.7218 35.1157C67.5275 34.909 67.3072 34.7282 67.0772 34.5344C66.7404 34.2534 66.3874 33.9627 66.1088 33.5816C65.5258 32.7936 64.797 31.7472 64.282 30.6427C64.2302 30.5394 64.1881 30.4264 64.1428 30.3069C63.8675 29.9807 63.5533 29.7062 63.1549 29.5221C63.0836 29.4898 63.0091 29.4607 62.9346 29.4316C62.9087 29.4349 62.8828 29.4381 62.8569 29.4413C62.7047 29.4607 62.546 29.4801 62.3873 29.4801C61.2763 29.4769 60.3467 29.099 59.537 28.3336C59.4204 28.2205 59.3168 28.0946 59.2163 27.9719C59.0155 27.7232 58.8633 27.5553 58.6916 27.4907H58.7013V27.4842M58.7013 27.4842C58.6787 27.4777 58.656 27.4713 58.6269 27.4648M58.6269 27.4648C58.6107 27.4648 58.5945 27.4584 58.575 27.4584C58.5945 27.4584 58.6107 27.4616 58.6269 27.4648ZM58.439 27.4713C58.4163 27.4713 58.3904 27.4713 58.3677 27.4777C58.3937 27.4777 58.4163 27.4745 58.439 27.4713ZM81.335 8.24882C81.0435 8.35863 80.7358 8.42322 80.4281 8.47166C79.8063 8.57178 79.152 8.6073 78.4977 8.81723C78.3358 8.87213 78.1738 8.93672 78.0184 9.01746C77.8629 9.0982 77.7107 9.19832 77.5779 9.31458C77.3058 9.54711 77.0953 9.85069 76.969 10.1704C76.9009 10.3351 76.8556 10.5063 76.8362 10.6807C76.8167 10.8583 76.8264 11.0359 76.8685 11.2071C76.9171 11.3783 76.9981 11.5398 77.1082 11.6689C77.2216 11.7981 77.3641 11.895 77.5131 11.9628C77.39 11.853 77.2864 11.7303 77.2184 11.5947C77.1471 11.459 77.105 11.3137 77.0953 11.1684C77.0758 10.8777 77.1601 10.5838 77.2993 10.3287C77.4418 10.0638 77.6264 9.83777 77.8564 9.66015C78.0831 9.48575 78.352 9.3598 78.6402 9.26614C79.22 9.07882 79.8646 9.011 80.5026 8.83337C80.8233 8.74618 81.1407 8.62991 81.4322 8.45551C81.7205 8.28112 81.9796 8.04859 82.1415 7.76438C81.8954 7.97754 81.6233 8.14224 81.3318 8.24559L81.335 8.24882ZM27.8861 26.6607C27.8861 26.6607 31.423 21.742 36.3171 21.5547C36.3171 21.5547 30.325 20.8829 27.8861 26.6607ZM36.1746 18.8031C36.0936 17.3692 36.3495 16.1451 35.7146 14.5659C35.611 14.3107 35.3843 14.146 35.1737 13.9684C36.2782 14.9114 35.5138 17.1883 35.9867 20.0174C36.4596 22.8465 39.8572 24.4742 39.8572 24.4742C39.3293 24.0835 38.824 23.6636 38.3576 23.1985C37.1527 22.0036 36.2717 20.5245 36.1746 18.8063V18.8031ZM51.7927 22.9014C51.6178 23.2018 51.5174 23.5377 51.4559 23.8703C51.336 24.5421 51.3522 25.2203 51.4397 25.8856C51.4526 25.9695 51.4656 26.0503 51.4753 26.1245C51.485 26.2021 51.4915 26.2796 51.498 26.3571C51.5142 26.5121 51.5174 26.6703 51.5174 26.8286C51.5174 27.1419 51.4947 27.4616 51.4559 27.7781C51.3878 28.4176 51.2486 29.0635 51.2129 29.7288C51.4429 29.1087 51.6761 28.4951 51.8251 27.8395C51.8996 27.5133 51.9482 27.1774 51.9644 26.8383C51.9741 26.6671 51.9708 26.496 51.9644 26.3248C51.9579 26.2376 51.9482 26.1536 51.9385 26.0696C51.9287 25.9824 51.9158 25.8985 51.9061 25.821C51.8219 25.188 51.7765 24.5453 51.8219 23.9155C51.8478 23.6022 51.8964 23.289 52 22.9983C52.1036 22.7077 52.2818 22.4364 52.5636 22.2555C52.4016 22.2975 52.2494 22.3847 52.1198 22.4977C51.9903 22.6108 51.8834 22.7529 51.7927 22.9014Z" stroke="#511D00" stroke-width="1.5"/>
</svg>
