<svg width="60" height="60" viewBox="0 0 60 60" fill="none" xmlns="http://www.w3.org/2000/svg">
<circle cx="28" cy="31" r="15" fill="#F8ECD7"/>
<path d="M29.0179 5C29.6437 5 30.1193 5.2486 30.6502 5.54532C31.1806 5.84241 31.7387 6.22455 32.2805 6.60281C32.8223 6.98071 33.3513 7.35439 33.8035 7.64995C34.2556 7.94512 34.6646 8.15639 34.7668 8.18372C34.8693 8.2122 35.3241 8.24222 35.861 8.2172C36.3979 8.18872 37.0453 8.12446 37.7002 8.0725C38.3551 8.02132 39.0116 7.98245 39.6169 7.99515C40.2223 8.00669 40.76 8.03555 41.3021 8.35189C41.8443 8.67015 42.139 9.1281 42.4527 9.65498C42.7664 10.1819 43.0566 10.7879 43.34 11.391C43.6233 11.994 43.903 12.599 44.1493 13.0846C44.3956 13.5706 44.6438 13.9547 44.7187 14.0309C44.7936 14.1075 45.1712 14.3595 45.6491 14.6101C46.1266 14.861 46.7213 15.135 47.3142 15.4232C47.9071 15.7119 48.5027 16.0166 49.021 16.3357C49.539 16.6547 49.9892 16.9429 50.3021 17.494C50.615 18.0455 50.6404 18.5939 50.6533 19.2096C50.6657 19.8254 50.6166 20.5031 50.5655 21.1696C50.5144 21.8358 50.4599 22.4942 50.4346 23.0403C50.4092 23.5864 50.4399 24.0489 50.4679 24.1533C50.4955 24.2575 50.6907 24.6732 50.9809 25.133C51.2711 25.5929 51.6502 26.1309 52.0218 26.682C52.3937 27.2335 52.7596 27.7904 53.0517 28.3302C53.3434 28.8702 53.5977 29.3639 53.5977 30.0004C53.5977 30.6369 53.3434 31.1191 53.0513 31.6587C52.7596 32.1986 52.3933 32.7559 52.0218 33.3069C51.6502 33.8583 51.2711 34.4059 50.9805 34.8658C50.69 35.3261 50.4947 35.7417 50.4675 35.8456C50.4399 35.9499 50.4092 36.4025 50.4342 36.9485C50.4595 37.4946 50.514 38.1527 50.5651 38.8192C50.6162 39.4853 50.6654 40.163 50.6529 40.7788C50.6404 41.3945 50.6147 41.9433 50.3018 42.4944C49.9889 43.0458 49.5386 43.3437 49.0206 43.6627C48.5026 43.9813 47.9067 44.2769 47.3138 44.5651C46.7209 44.8538 46.1261 45.1278 45.6487 45.3783C45.1712 45.6292 44.7932 45.8913 44.7183 45.9675C44.6434 46.0441 44.3952 46.4297 44.1489 46.9153C43.9026 47.401 43.623 47.9929 43.3396 48.5955C43.0562 49.1986 42.766 49.8062 42.4523 50.3331C42.1387 50.8599 41.8439 51.3298 41.3017 51.6481C40.7595 51.9664 40.2222 51.9902 39.6166 52.0033C39.0112 52.0149 38.3548 51.9633 37.6998 51.914C37.0448 51.8629 36.3975 51.8067 35.8606 51.7809C35.3237 51.7524 34.869 51.7878 34.7664 51.8163C34.6638 51.8452 34.2552 52.043 33.8031 52.3381C33.3509 52.6333 32.822 53.0193 32.2802 53.3972C31.7383 53.7751 31.1803 54.1461 30.6498 54.4428C30.119 54.7399 29.6433 55 29.0175 55C28.3917 55 27.9177 54.7399 27.3872 54.4428C26.8563 54.1457 26.2967 53.7751 25.7549 53.3972C25.2131 53.0193 24.686 52.6337 24.2335 52.3381C23.7814 52.043 23.3724 51.844 23.2702 51.8163C23.1677 51.7878 22.7114 51.7559 22.1745 51.7809C21.6376 51.8097 20.9906 51.8625 20.3354 51.914C19.6804 51.9652 19.0258 52.0164 18.4201 52.0033C17.8148 51.9918 17.2753 51.9645 16.7334 51.6481C16.1912 51.3299 15.8984 50.86 15.5848 50.3331C15.2711 49.8063 14.9809 49.1986 14.6975 48.5955C14.4141 47.9925 14.133 47.401 13.8863 46.9153C13.64 46.4297 13.3937 46.0437 13.3184 45.9675C13.2435 45.8909 12.864 45.6284 12.3865 45.3783C11.909 45.1274 11.3157 44.8534 10.7228 44.5651C10.1299 44.2765 9.54422 43.9817 9.02621 43.6627C8.50824 43.3433 8.04629 43.0454 7.73333 42.4944C7.42043 41.9429 7.39659 41.3945 7.3841 40.7788C7.37199 40.163 7.4208 39.4853 7.47188 38.8192C7.52296 38.153 7.57706 37.4946 7.6028 36.9485C7.62815 36.4024 7.5975 35.9498 7.56988 35.8456C7.54226 35.7413 7.34552 35.3257 7.05494 34.8658C6.76435 34.4055 6.38713 33.858 6.01563 33.3069C5.64408 32.7554 5.27782 32.1981 4.9861 31.6587C4.69439 31.1187 4.43824 30.6369 4.43824 30.0004C4.43824 29.3639 4.69439 28.8701 4.9861 28.3302C5.27781 27.7904 5.64407 27.233 6.01563 26.682C6.38718 26.1306 6.76478 25.5929 7.05494 25.133C7.34552 24.6728 7.54264 24.2572 7.56988 24.1533C7.5975 24.049 7.62815 23.5868 7.6028 23.0403C7.57745 22.4942 7.52296 21.8361 7.47188 21.1696C7.4208 20.5035 7.37161 19.8258 7.3841 19.2096C7.39621 18.5939 7.42043 18.0455 7.73333 17.494C8.04624 16.9426 8.50821 16.6547 9.02621 16.3357C9.54419 16.0163 10.1302 15.7115 10.7228 15.4232C11.3157 15.1346 11.9086 14.8606 12.3865 14.6101C12.864 14.3592 13.2435 14.1071 13.3184 14.0309C13.3933 13.9543 13.6396 13.5706 13.8863 13.0846C14.1326 12.5989 14.4141 11.9936 14.6975 11.391C14.9809 10.7879 15.2711 10.1822 15.5848 9.65498C15.8984 9.12814 16.1916 8.67019 16.7334 8.35189C17.2756 8.03324 17.8148 8.00823 18.4201 7.99515C19.0255 7.9836 19.6805 8.02285 20.3354 8.0725C20.9903 8.12368 21.6376 8.19102 22.1745 8.2172C22.7114 8.24568 23.1681 8.2122 23.2702 8.18372C23.3731 8.15524 23.7817 7.94512 24.2339 7.64995C24.686 7.3544 25.2134 6.98072 25.7553 6.60281C26.2971 6.22452 26.8567 5.84198 27.3876 5.54532C27.918 5.24823 28.3921 5 29.0179 5ZM29.0179 6.72564C29.01 6.72564 28.6301 6.81684 28.1969 7.0589C27.7636 7.30135 27.2472 7.64809 26.7186 8.01676C26.19 8.38582 25.6535 8.78066 25.1526 9.10775C24.6516 9.43486 24.2173 9.70463 23.7076 9.84356C23.1979 9.98209 22.6932 9.96132 22.0985 9.93284C21.5037 9.90436 20.8438 9.84818 20.2048 9.79815C19.5657 9.74696 18.9478 9.7104 18.4533 9.72079C17.9588 9.73234 17.5827 9.8397 17.5759 9.84356C17.5691 9.8474 17.2956 10.1156 17.0398 10.5455C16.7836 10.9761 16.4953 11.5484 16.2187 12.1364C15.9421 12.7243 15.6705 13.3359 15.3977 13.8739C15.1245 14.4123 14.8854 14.8649 14.512 15.2443C14.1389 15.6241 13.6936 15.8673 13.1646 16.1452C12.6357 16.423 12.0345 16.7009 11.4563 16.9818C10.8782 17.2628 10.325 17.5448 9.902 17.805C9.47899 18.0655 9.20581 18.3549 9.20165 18.3622C9.19786 18.368 9.09117 18.7501 9.08095 19.2527C9.07074 19.7557 9.10706 20.3841 9.157 21.0341C9.20695 21.6841 9.27127 22.3572 9.29927 22.9617C9.32727 23.5667 9.34808 24.0797 9.21149 24.598C9.0749 25.1164 8.79984 25.5466 8.47823 26.0562C8.15663 26.5661 7.77979 27.1229 7.41732 27.6605C7.05486 28.1982 6.70223 28.7235 6.46386 29.1641C6.22549 29.6048 6.1362 29.9911 6.1362 29.9992C6.1362 30.005 6.22587 30.3817 6.46386 30.8224C6.70222 31.263 7.05486 31.7999 7.41732 32.3379C7.77979 32.8755 8.15664 33.4193 8.47823 33.9288C8.79984 34.4387 9.07491 34.8816 9.21149 35.4004C9.34808 35.9188 9.32727 36.4322 9.29927 37.0371C9.27127 37.642 9.20657 38.3013 9.157 38.9513C9.10706 39.6013 9.07036 40.2417 9.08095 40.7442C9.09079 41.2472 9.19786 41.6278 9.20165 41.6347C9.20543 41.6405 9.47899 41.9214 9.902 42.182C10.325 42.4425 10.8782 42.7242 11.4563 43.0051C12.0344 43.2861 12.6357 43.5743 13.1646 43.8521C13.6936 44.13 14.1389 44.3632 14.512 44.7427C14.885 45.1225 15.1245 45.5851 15.3977 46.1235C15.6705 46.6619 15.9421 47.273 16.2187 47.861C16.4953 48.4495 16.7836 49.0117 17.0398 49.442C17.2959 49.8726 17.5691 50.1501 17.5759 50.1543C17.5827 50.1581 17.9588 50.2663 18.4533 50.2771C18.9478 50.2886 19.5657 50.2493 20.2048 50.1997C20.8438 50.1485 21.5036 50.0835 22.0985 50.055C22.6933 50.0265 23.1976 50.0038 23.7076 50.1443C24.2176 50.2836 24.6516 50.563 25.1526 50.8901C25.6535 51.2172 26.19 51.6005 26.7186 51.9692C27.2471 52.3382 27.7636 52.685 28.1969 52.927C28.6301 53.1695 29.0099 53.2722 29.0179 53.2722C29.0259 53.2722 29.4057 53.1695 29.8389 52.927C30.2722 52.6846 30.7886 52.3378 31.3172 51.9692C31.8458 51.6001 32.3823 51.2172 32.8833 50.8901C33.3842 50.563 33.8186 50.2832 34.3282 50.1443C34.8379 50.005 35.3426 50.0265 35.9373 50.055C36.5321 50.0839 37.1935 50.1489 37.8325 50.1997C38.4716 50.2509 39.0895 50.2874 39.5839 50.2771C40.0784 50.2655 40.4526 50.1581 40.4595 50.1543C40.4663 50.1516 40.7512 49.8737 41.0073 49.4435C41.2635 49.0129 41.5404 48.4506 41.817 47.8622C42.0932 47.2742 42.3649 46.663 42.6377 46.1246C42.9108 45.5866 43.1519 45.1237 43.5249 44.7442C43.8984 44.3644 44.3433 44.1312 44.8726 43.8533C45.4016 43.5758 46.0009 43.288 46.579 43.0067C47.1575 42.7254 47.7122 42.444 48.1352 42.1831C48.5582 41.9226 48.8314 41.6428 48.8351 41.6363C48.8389 41.6309 48.9456 41.2484 48.9558 40.7458C48.9661 40.2428 48.9278 39.6028 48.8779 38.9528C48.828 38.3028 48.7636 37.6432 48.7356 37.0386C48.7076 36.4337 48.6868 35.9207 48.8234 35.402C48.9604 34.8832 49.2354 34.4395 49.557 33.93C49.8786 33.4205 50.2574 32.8767 50.6199 32.3391C50.9824 31.8015 51.3335 31.2647 51.5715 30.8236C51.8098 30.383 51.901 30.0086 51.901 30.0005C51.901 29.9947 51.8098 29.606 51.5715 29.1654C51.3335 28.7247 50.9824 28.1994 50.6199 27.6618C50.257 27.1242 49.8787 26.567 49.557 26.0574C49.2354 25.5475 48.9604 25.1177 48.8238 24.5993C48.6872 24.0809 48.708 23.5675 48.736 22.9626C48.764 22.358 48.8287 21.6849 48.8783 21.035C48.9282 20.385 48.9664 19.7565 48.9562 19.2536C48.946 18.751 48.8393 18.37 48.8351 18.3631C48.8314 18.3573 48.5582 18.0664 48.1352 17.8059C47.7122 17.5453 47.1575 17.2636 46.579 16.9823C46.0009 16.7014 45.4016 16.4231 44.8726 16.1457C44.3433 15.8682 43.8983 15.6246 43.5249 15.2448C43.1519 14.8649 42.9105 14.4124 42.6377 13.8744C42.3645 13.336 42.0932 12.7249 41.8166 12.1368C41.54 11.5488 41.2631 10.9762 41.0073 10.546C40.7512 10.1153 40.4663 9.84788 40.4595 9.84403C40.4526 9.84018 40.0781 9.73128 39.5839 9.72127C39.0894 9.70972 38.4716 9.74897 37.8325 9.79862C37.1935 9.8498 36.5317 9.90483 35.9373 9.93331C35.3426 9.96179 34.8382 9.9845 34.3282 9.84403C33.8182 9.70472 33.3842 9.43572 32.8833 9.10822C32.3823 8.78111 31.8458 8.38589 31.3172 8.01724C30.7887 7.64818 30.2722 7.30144 29.8389 7.05899C29.4057 6.81693 29.0259 6.72564 29.0179 6.72564ZM29.0164 12.898C38.2892 12.898 45.8264 20.5654 45.8264 29.9967C45.8264 39.428 38.2896 47.0945 29.0164 47.0945C19.7432 47.0945 12.2112 39.4286 12.2112 29.9967C12.2112 20.5648 19.7432 12.897 29.0164 12.898ZM29.0164 14.622C20.6596 14.622 13.9062 21.4971 13.9062 29.9967C13.9062 38.4963 20.6592 45.3704 29.0164 45.3704C37.3736 45.3704 44.1314 38.4968 44.1314 29.9967C44.1314 21.4966 37.3735 14.621 29.0164 14.622ZM29.0179 21.2035C29.3792 21.2024 29.7016 21.4344 29.8208 21.7808L31.6581 27.145L37.2498 27.2627C37.6104 27.2708 37.9271 27.5094 38.0383 27.8581C38.15 28.2063 38.0319 28.5885 37.7447 28.8102L33.287 32.2413L34.906 37.6814C35.0085 38.0316 34.8821 38.4091 34.5912 38.6235C34.3002 38.8382 33.9075 38.8432 33.6116 38.6358L29.0179 35.3932L24.4243 38.6358C24.1284 38.8417 23.7364 38.8363 23.4462 38.6219C23.156 38.4076 23.03 38.0308 23.1314 37.6814L24.7504 32.2413L20.2926 28.8102C20.0054 28.5885 19.8874 28.2063 19.999 27.8581C20.1106 27.5094 20.4269 27.2708 20.7879 27.2627L26.3793 27.145L28.2167 21.7808C28.3358 21.4348 28.657 21.2031 29.0179 21.2035ZM29.0179 24.687L27.7897 28.2799C27.6736 28.62 27.361 28.851 27.0065 28.859L23.2623 28.9364L26.2437 31.2312C26.5275 31.4478 26.6486 31.8215 26.5464 32.1675L25.4621 35.8092L28.5362 33.6337C28.8272 33.4282 29.2135 33.4282 29.5044 33.6337L32.5786 35.8092L31.4942 32.1675C31.3913 31.8223 31.5109 31.449 31.7939 31.2312L34.7735 28.9364L31.0342 28.859C30.6782 28.8525 30.3645 28.6212 30.248 28.2799L29.0179 24.687Z" fill="#511D00"/>
</svg>
