<svg width="60" height="60" viewBox="0 0 60 60" fill="none" xmlns="http://www.w3.org/2000/svg">
<path d="M11 20H51C52.6569 20 54 21.3431 54 23V49H11V20Z" fill="white"/>
<circle cx="14.5" cy="19.5" r="8.5" fill="white"/>
<rect x="12" y="19" width="6" height="5" fill="#F8ECD7"/>
<path d="M11 25H46C47.6569 25 49 26.3431 49 28V49H11V25Z" fill="#F8ECD7"/>
<path d="M42.1889 42.7872H48.8622C49.2815 42.7872 49.6211 43.1541 49.6211 43.6069C49.6211 44.0597 49.2815 44.4266 48.8622 44.4266H42.1889C41.7697 44.4266 41.4301 44.0597 41.4301 43.6069C41.4301 43.1541 41.7697 42.7872 42.1889 42.7872Z" fill="#511D00"/>
<path d="M30.6861 42.7872H39.0706C39.4697 42.7872 39.793 43.1541 39.793 43.6069C39.793 44.0597 39.4697 44.4266 39.0706 44.4266H30.6861C30.287 44.4266 29.9637 44.0597 29.9637 43.6069C29.9637 43.1541 30.287 42.7872 30.6861 42.7872Z" fill="#511D00"/>
<path d="M24.0484 42.7872H27.6893C28.0411 42.7872 28.3262 43.1541 28.3262 43.6069C28.3262 44.0597 28.0411 44.4266 27.6893 44.4266H24.0484C23.6966 44.4266 23.4116 44.0597 23.4116 43.6069C23.4116 43.1541 23.6966 42.7872 24.0484 42.7872Z" fill="#511D00"/>
<path d="M15.9625 42.7872H20.21C20.6202 42.7872 20.9531 43.1541 20.9531 43.6069C20.9531 44.0597 20.6202 44.4266 20.21 44.4266H15.9625C15.552 44.4266 15.2194 44.0597 15.2194 43.6069C15.2194 43.1541 15.552 42.7872 15.9625 42.7872Z" fill="#511D00"/>
<path d="M48.0593 31.3117H44.6329C44.001 31.311 43.3956 31.0885 42.9489 30.6926C42.5022 30.2967 42.2512 29.7598 42.2504 29.2001V26.0463C42.2512 25.4863 42.5022 24.9498 42.9489 24.5538C43.3956 24.1579 44.0009 23.935 44.6329 23.9347H48.0593C48.6908 23.935 49.2965 24.1579 49.7428 24.5538C50.1895 24.9497 50.441 25.4862 50.4414 26.0463V29.2004V29.2C50.441 29.7597 50.1895 30.2966 49.7428 30.6925C49.2966 31.0884 48.6908 31.311 48.0593 31.3117ZM48.9479 26.0463C48.9475 25.6113 48.5498 25.2588 48.0593 25.2584H44.6329C44.142 25.2588 43.7447 25.6113 43.7439 26.0463V29.2004V29.2C43.7447 29.6347 44.142 29.9872 44.6329 29.9879H48.0593C48.5498 29.9872 48.9475 29.6347 48.9479 29.2V26.0463Z" fill="#511D00"/>
<path d="M15.3225 10C17.8071 10.0035 20.2002 10.936 22.0305 12.6135C23.8608 14.2913 24.9955 16.5922 25.2111 19.0635H51.961C52.8611 19.0647 53.7235 19.422 54.36 20.0574C54.9964 20.6925 55.3543 21.5539 55.3555 22.4523V47.5948C55.3543 48.4936 54.9964 49.355 54.36 49.9901C53.724 50.6255 52.8611 50.9828 51.961 50.9836H13.5057C12.6067 50.9821 11.7447 50.6243 11.1091 49.9893C10.4739 49.3539 10.1167 48.4928 10.1163 47.5949V28.3445C7.64382 26.8274 5.96091 24.3056 5.51048 21.4431C5.06002 18.5806 5.88744 15.665 7.77448 13.4639C9.66194 11.2629 12.42 9.99715 15.322 10.0002L15.3225 10ZM12.0455 47.595V47.5947C12.0451 47.9823 12.1992 48.354 12.473 48.6282C12.7469 48.9024 13.1184 49.057 13.5066 49.0582H51.9609C52.3495 49.0578 52.7222 48.9036 52.9968 48.629C53.2718 48.3548 53.4262 47.9827 53.4266 47.5947V22.4522C53.4262 22.0642 53.2718 21.6925 52.9968 21.4179C52.7221 21.1437 52.3494 20.9895 51.9609 20.9891H25.1931C24.8733 23.998 23.1912 26.695 20.6277 28.3084C18.0641 29.9221 14.9018 30.2748 12.0449 29.2654L12.0455 47.595ZM15.3225 27.9058C17.4449 27.9058 19.4806 27.0641 20.9814 25.5657C22.4821 24.0673 23.3255 22.0348 23.3255 19.9154C23.3255 17.7963 22.4822 15.7638 20.9814 14.2654C19.4806 12.767 17.4449 11.925 15.3225 11.925C13.2001 11.925 11.1644 12.767 9.66321 14.2654C8.16245 15.7638 7.31945 17.7963 7.31945 19.9154C7.32178 22.0337 8.16554 24.0649 9.6659 25.563C11.1663 27.0606 13.2004 27.9035 15.3225 27.9058Z" fill="#511D00"/>
<path d="M12.3099 17.9172H12.3342V16.606C12.2536 15.9294 12.5091 15.2554 13.0295 14.771C13.5498 14.2869 14.2795 14.0437 15.0164 14.1096C17.3958 14.1096 17.9194 15.6599 17.9202 16.2582V17.9171H18.1279C18.792 17.9261 19.3224 18.4277 19.3144 19.038V23.6335C19.3225 24.2442 18.792 24.7454 18.1279 24.7547H12.3099C11.6458 24.7454 11.1154 24.2442 11.1235 23.6335V19.038C11.1154 18.4277 11.6458 17.9261 12.3099 17.9172ZM16.4151 16.2743C16.4054 16.0915 16.2754 15.4945 15.0165 15.4945L15.0161 15.4942C14.6731 15.4621 14.331 15.5627 14.0718 15.7723C13.8993 15.9794 13.8151 16.2371 13.8349 16.4973L13.8382 17.9173L16.4147 17.9176L16.4151 16.2743ZM12.6291 23.3703H17.809V19.3017H12.6291V23.3703Z" fill="#511D00"/>
</svg>
