<svg width="36" height="45" viewBox="0 0 36 45" fill="none" xmlns="http://www.w3.org/2000/svg">
<rect x="7.6875" y="1" width="5.34931" height="9.36129" rx="2.67465" fill="#F8ECD7"/>
<path d="M15.7103 19.8371C14.373 19.8371 11.6983 20.5631 9.69227 21.2891C5.94768 21.2891 5.01166 27.0969 5.01172 30.0008L7.01771 34.3567L9.69227 36.5346L11.0297 43.7944H31.0896V41.6165V38.7126L32.4269 34.3567L34.4329 30.0008V26.3709V18.3852L33.7642 17.7162C31.9811 18.2002 28.4149 14.2585 27.0776 17.0478C26.6151 18.0125 24.8487 17.0479 24.403 17.0479C22.1741 17.0479 16.7802 19.8371 15.7103 19.8371Z" fill="#F8ECD7"/>
<rect x="21.0605" y="5.01196" width="5.34931" height="14.7106" rx="2.67465" fill="#F8ECD7"/>
<rect x="27.7461" y="6.34924" width="5.34931" height="10.6986" rx="2.67465" fill="#F8ECD7"/>
<rect x="14.373" y="2.33728" width="5.34931" height="9.36129" rx="2.67465" fill="#F8ECD7"/>
<path d="M19.2131 14.1303L8.24645 11.9538C6.23415 11.5542 4.23461 12.6488 3.48101 14.5628L1.58658 19.4005C0.564176 22.016 0.891569 24.9726 2.46496 27.2931L8.22033 35.7819C8.7384 36.5423 9.01365 37.4339 9.01365 38.3581V43.1368C9.01365 43.5039 9.31497 43.8052 9.68214 43.8052C10.0493 43.8052 10.3506 43.5039 10.3506 43.1368V38.3581C10.3506 37.1652 9.99673 36.0179 9.32823 35.0348L3.57285 26.5459C2.24228 24.5862 1.96697 22.0951 2.83211 19.8861L4.72654 15.0484C5.23774 13.7438 6.60761 12.9899 7.98442 13.2656L18.9511 15.4422C19.2264 15.4947 19.4559 15.6648 19.5935 15.9077C19.7312 16.15 19.7572 16.4321 19.6658 16.701C19.0956 18.3068 17.5748 19.3951 15.8638 19.4014L11.5836 19.4147C11.2297 19.4147 10.9347 19.6964 10.9215 20.0507C10.9018 20.4046 11.1638 20.7128 11.5182 20.7521C11.5379 20.7521 13.2882 20.9488 14.9987 21.9712C17.2209 23.3017 18.3485 25.3667 18.3485 28.1065C18.3485 28.4737 18.6498 28.775 19.017 28.775C19.3842 28.775 19.6855 28.4737 19.6855 28.1065C19.6855 24.0425 17.4893 21.8856 15.6411 20.7974C15.6082 20.7778 15.5757 20.7581 15.5428 20.7385H15.8706C18.1386 20.7321 20.1706 19.2899 20.9246 17.1463C21.1473 16.5171 21.0819 15.8285 20.7541 15.2518C20.4262 14.6748 19.8624 14.2688 19.2072 14.1375L19.2131 14.1303Z" fill="#511D00" stroke="#511D00" stroke-width="0.8"/>
<path d="M30.9032 4.53308C29.6842 4.53308 28.589 5.07081 27.8419 5.91621C27.2256 4.44108 25.7706 3.40549 24.0792 3.40549C22.9123 3.40549 21.857 3.89703 21.1163 4.68397C20.5658 3.07808 19.045 1.9176 17.2553 1.9176C16.0034 1.9176 14.8823 2.48138 14.1351 3.37306C13.4863 1.97659 12.0701 1 10.4314 1C8.18308 1 6.34766 2.82899 6.34766 5.08371V8.82035C6.34766 9.18752 6.64898 9.48884 7.01615 9.48884C7.38331 9.48884 7.68464 9.18752 7.68464 8.82035V5.08371C7.68464 3.56925 8.91688 2.33701 10.4313 2.33701C11.9458 2.33701 13.178 3.56925 13.178 5.08371V10.1706C13.178 10.5378 13.4794 10.8391 13.8465 10.8391C14.2137 10.8391 14.515 10.5378 14.515 10.1706V5.99498C14.515 4.48052 15.7473 3.24828 17.2617 3.24828C18.7762 3.24828 20.0084 4.48052 20.0084 5.99498V11.5208C20.0084 11.888 20.3098 12.1893 20.6769 12.1893C21.0441 12.1893 21.3454 11.888 21.3454 11.5208V7.47644C21.3454 5.96198 22.5777 4.72973 24.0921 4.72973C25.6066 4.72973 26.8388 5.96198 26.8388 7.47644V13.9593C26.8388 15.4738 25.6066 16.706 24.0921 16.706C23.9678 16.706 23.8429 16.6996 23.7185 16.68C23.3514 16.6274 23.0171 16.883 22.9645 17.2501C22.912 17.6173 23.1676 17.9516 23.5347 18.0041C23.7181 18.0302 23.9019 18.0435 24.0921 18.0435C25.521 18.0435 26.7729 17.3091 27.5073 16.1948C28.2348 17.3091 29.4936 18.0435 30.9225 18.0435C31.9779 18.0435 32.9413 17.637 33.6692 16.9817V24.9264C33.6692 28.1253 32.8238 31.2785 31.2307 34.0444L29.4087 37.204C29.3497 37.3023 29.3168 37.4203 29.3168 37.5382V43.1231C29.3168 43.4902 29.6181 43.7916 29.9852 43.7916C30.3524 43.7916 30.6537 43.4902 30.6537 43.1231V37.7152L32.3844 34.713C34.0954 31.7436 34.9999 28.3545 34.9999 24.9261V8.60391C34.9999 6.35563 33.1709 4.5202 30.9162 4.5202L30.9032 4.53308ZM30.9032 16.7197C29.3887 16.7197 28.1565 15.4875 28.1565 13.973V8.61726C28.1565 7.1028 29.3887 5.87056 30.9032 5.87056C32.4176 5.87056 33.6499 7.1028 33.6499 8.61726V13.973C33.6499 15.4875 32.4176 16.7197 30.9032 16.7197Z" fill="#511D00" stroke="#511D00" stroke-width="0.8"/>
</svg>
